<svg width="12" height="9" viewBox="0 0 12 9" fill="none" xmlns="http://www.w3.org/2000/svg">
<path d="M2.184 9H3.912V0.504H2.64C2.552 0.984 2.34 1.332 2.004 1.548C1.676 1.764 1.224 1.872 0.648 1.872H0.492V3H2.184V9ZM11.2136 9V7.656H8.00963C8.04963 7.496 8.14163 7.308 8.28563 7.092C8.42963 6.868 8.62963 6.64 8.88563 6.408L9.84563 5.52C10.0856 5.304 10.2896 5.096 10.4576 4.896C10.6256 4.688 10.7616 4.476 10.8656 4.26C10.9696 4.044 11.0456 3.82 11.0936 3.588C11.1416 3.348 11.1656 3.092 11.1656 2.82C11.1656 2.076 10.9576 1.504 10.5416 1.104C10.1256 0.704 9.48563 0.504 8.62163 0.504C7.70963 0.504 7.04163 0.716 6.61763 1.14C6.19363 1.564 5.98163 2.172 5.98163 2.964V3.288H7.63763C7.63763 3.064 7.64563 2.852 7.66163 2.652C7.68563 2.452 7.72963 2.276 7.79363 2.124C7.86563 1.972 7.96163 1.852 8.08163 1.764C8.20963 1.676 8.38163 1.632 8.59763 1.632C9.15763 1.632 9.43763 1.984 9.43763 2.688C9.43763 2.904 9.42563 3.096 9.40163 3.264C9.38563 3.432 9.34563 3.588 9.28163 3.732C9.21763 3.876 9.12563 4.02 9.00563 4.164C8.89363 4.308 8.74163 4.464 8.54963 4.632L7.85363 5.28C7.54163 5.568 7.26563 5.856 7.02563 6.144C6.79363 6.424 6.59763 6.712 6.43763 7.008C6.28563 7.304 6.16963 7.616 6.08963 7.944C6.01763 8.272 5.98163 8.624 5.98163 9H11.2136Z" fill="white"/>
</svg>
