<svg width="26" height="26" viewBox="0 0 26 26" fill="none" xmlns="http://www.w3.org/2000/svg">
<mask id="mask0_2_176" style="mask-type:alpha" maskUnits="userSpaceOnUse" x="4" y="0" width="18" height="18">
<path fill-rule="evenodd" clip-rule="evenodd" d="M7.62 7.79C9.06 10.62 11.38 12.93 14.21 14.38L16.41 12.18C16.68 11.91 17.08 11.82 17.43 11.94C18.55 12.31 19.76 12.51 21 12.51C21.55 12.51 22 12.96 22 13.51V17C22 17.55 21.55 18 21 18C11.61 18 4 10.39 4 1C4 0.45 4.45 0 5 0H8.5C9.05 0 9.5 0.45 9.5 1C9.5 2.25 9.7 3.45 10.07 4.57C10.18 4.92 10.1 5.31 9.82 5.59L7.62 7.79Z" fill="white"/>
</mask>
<g mask="url(#mask0_2_176)">
<g filter="url(#filter0_d_2_176)">
<rect y="-4" width="26" height="26" fill="white" fill-opacity="0.5"/>
</g>
</g>
<defs>
<filter id="filter0_d_2_176" x="-4" y="-4" width="34" height="34" filterUnits="userSpaceOnUse" color-interpolation-filters="sRGB">
<feFlood flood-opacity="0" result="BackgroundImageFix"/>
<feColorMatrix in="SourceAlpha" type="matrix" values="0 0 0 0 0 0 0 0 0 0 0 0 0 0 0 0 0 0 127 0" result="hardAlpha"/>
<feOffset dy="4"/>
<feGaussianBlur stdDeviation="2"/>
<feComposite in2="hardAlpha" operator="out"/>
<feColorMatrix type="matrix" values="0 0 0 0 0 0 0 0 0 0 0 0 0 0 0 0 0 0 0.25 0"/>
<feBlend mode="normal" in2="BackgroundImageFix" result="effect1_dropShadow_2_176"/>
<feBlend mode="normal" in="SourceGraphic" in2="effect1_dropShadow_2_176" result="shape"/>
</filter>
</defs>
</svg>
