<svg width="28" height="28" viewBox="0 0 28 28" fill="none" xmlns="http://www.w3.org/2000/svg">
<mask id="mask0_5_149" style="mask-type:luminance" maskUnits="userSpaceOnUse" x="6" y="6" width="16" height="16">
<path fill-rule="evenodd" clip-rule="evenodd" d="M21.0743 9.10697C20.8839 8.6165 20.63 8.20104 20.2145 7.78559C19.7991 7.37013 19.3836 7.11624 18.8931 6.92582C18.42 6.74118 17.8718 6.61423 17.0813 6.57961L17.0679 6.57903C16.2821 6.54486 16.0197 6.53345 14 6.53345C11.9689 6.53345 11.715 6.53922 10.9187 6.57961C10.1224 6.61423 9.58 6.74118 9.10684 6.92582C8.61638 7.11624 8.20092 7.37013 7.78546 7.78559C7.37001 8.20104 7.11612 8.6165 6.9257 9.10697C6.74105 9.58012 6.61411 10.1283 6.57949 10.9188L6.5789 10.9322C6.54474 11.718 6.53333 11.9805 6.53333 14.0001C6.53333 16.0312 6.5391 16.2851 6.57949 17.0814C6.61411 17.8777 6.74105 18.4201 6.9257 18.8933C7.11612 19.3837 7.37001 19.7992 7.78546 20.2146C8.20092 20.6301 8.61638 20.884 9.10684 21.0744C9.58 21.2591 10.1282 21.386 10.9187 21.4206L10.9321 21.4212C11.7179 21.4554 11.9803 21.4668 14 21.4668C16.0311 21.4668 16.285 21.461 17.0813 21.4206C17.8776 21.386 18.42 21.2591 18.8931 21.0744C19.3836 20.884 19.7991 20.6301 20.2145 20.2146C20.63 19.7992 20.8839 19.3837 21.0743 18.8933C21.2589 18.4201 21.3859 17.8719 21.4205 17.0814L21.4211 17.068C21.4552 16.2822 21.4667 16.0198 21.4667 14.0001C21.4667 11.969 21.4609 11.7151 21.4205 10.9188C21.3859 10.1225 21.2589 9.58012 21.0743 9.10697ZM19.5578 16.7579C19.5262 17.4223 19.4154 17.7862 19.3205 18.0235C19.1992 18.3399 19.0463 18.5719 18.809 18.8092C18.5717 19.0464 18.345 19.1941 18.0233 19.3206C17.7808 19.4156 17.4222 19.5263 16.7578 19.5579L16.7235 19.5594H16.7235C16.0282 19.5899 15.7952 19.6001 14 19.6001C12.1755 19.6001 11.9593 19.5948 11.2422 19.5579C10.5778 19.5263 10.2139 19.4156 9.97664 19.3206C9.66026 19.1994 9.42824 19.0464 9.19095 18.8092C8.95366 18.5719 8.80602 18.3451 8.67947 18.0235C8.58455 17.7809 8.47382 17.4223 8.44218 16.7579L8.44093 16.7294C8.41026 16.0295 8.39999 15.7952 8.39999 14.0001C8.39999 12.1809 8.40527 11.9594 8.44218 11.2423C8.47382 10.5779 8.58455 10.2141 8.67947 9.97676C8.80075 9.66038 8.95366 9.42836 9.19095 9.19108C9.42824 8.95379 9.65498 8.80614 9.97664 8.67959C10.2192 8.58467 10.5778 8.47394 11.2422 8.4423L11.2707 8.44105C11.9706 8.41038 12.205 8.40011 14 8.40011C15.8192 8.40011 16.0407 8.40539 16.7578 8.4423C17.4222 8.47394 17.7861 8.58467 18.0233 8.67959C18.3397 8.80087 18.5717 8.95379 18.809 9.19108C19.0463 9.42836 19.194 9.65511 19.3205 9.97676C19.4154 10.2193 19.5262 10.5779 19.5578 11.2423L19.5591 11.2708C19.5897 11.9707 19.6 12.2051 19.6 14.0001C19.6 15.802 19.5896 16.0364 19.5587 16.7375V16.7376L19.5578 16.7579ZM18.6667 10.2668C18.6667 10.7822 18.2488 11.2001 17.7333 11.2001C17.2179 11.2001 16.8 10.7822 16.8 10.2668C16.8 9.75132 17.2179 9.33345 17.7333 9.33345C18.2488 9.33345 18.6667 9.75132 18.6667 10.2668ZM14 10.2668C11.9396 10.2668 10.2667 11.9398 10.2667 14.0001C10.2667 16.0605 11.9396 17.7334 14 17.7334C16.0603 17.7334 17.7333 16.0605 17.7333 14.0001C17.7333 11.9398 16.0603 10.2668 14 10.2668ZM12.1333 14.0001C12.1333 15.0328 12.9716 15.8668 14 15.8668C15.0284 15.8668 15.8667 15.0285 15.8667 14.0001C15.8667 12.9674 15.0327 12.1334 14 12.1334C12.9673 12.1334 12.1333 12.9717 12.1333 14.0001Z" fill="white"/>
</mask>
<g mask="url(#mask0_5_149)">
<rect x="1.86664" y="1.8667" width="24.2667" height="24.2667" fill="#737373"/>
</g>
</svg>
