<?xml version="1.0" encoding="UTF-8"?>
<svg xmlns="http://www.w3.org/2000/svg" xmlns:xlink="http://www.w3.org/1999/xlink" width="px" height="px" viewBox="0 0 12 12" version="1.1">
<g id="surface1">
<path style=" stroke:none;fill-rule:nonzero;fill:rgb(20.392157%,78.039216%,34.901961%);fill-opacity:1;" d="M 8.207031 4 L 3.792969 4 C 1.699219 4 0 5.773438 0 7.957031 C 0 10.144531 1.699219 11.917969 3.792969 11.917969 L 8.207031 11.917969 C 10.300781 11.917969 12 10.144531 12 7.957031 C 12 5.773438 10.300781 4 8.207031 4 Z M 8.125 11.464844 C 6.269531 11.464844 4.765625 9.894531 4.765625 7.960938 C 4.765625 6.023438 6.269531 4.453125 8.125 4.453125 C 9.976562 4.453125 11.480469 6.023438 11.480469 7.960938 C 11.480469 9.894531 9.976562 11.464844 8.125 11.464844 Z M 8.125 11.464844 "/>
<path style=" stroke:none;fill-rule:nonzero;fill:rgb(20.392157%,78.039216%,34.901961%);fill-opacity:1;" d="M 7.683594 2.34375 C 7.683594 2.839844 7.804688 3.308594 8.023438 3.714844 C 6.964844 3.523438 6.160156 2.558594 6.160156 1.398438 C 6.160156 1.253906 6.171875 1.113281 6.199219 0.972656 C 6.402344 0.90625 6.625 0.871094 6.851562 0.871094 C 7.242188 0.871094 7.613281 0.976562 7.933594 1.160156 C 7.773438 1.519531 7.683594 1.917969 7.683594 2.34375 Z M 7.683594 2.34375 "/>
<path style=" stroke:none;fill-rule:nonzero;fill:rgb(20.392157%,78.039216%,34.901961%);fill-opacity:1;" d="M 10.660156 1.398438 C 10.660156 2.460938 9.988281 3.355469 9.0625 3.648438 C 8.90625 3.699219 8.738281 3.730469 8.566406 3.742188 C 8.289062 3.351562 8.125 2.867188 8.125 2.34375 C 8.125 2.015625 8.1875 1.707031 8.300781 1.425781 C 8.625 0.632812 9.351562 0.0625 10.214844 0 C 10.496094 0.390625 10.660156 0.875 10.660156 1.398438 Z M 10.660156 1.398438 "/>
</g>
</svg>
