<svg width="25" height="24" viewBox="0 0 25 24" fill="none" xmlns="http://www.w3.org/2000/svg">
<g clip-path="url(#clip0_2_350)">
<path d="M17.0984 8H7.90162C3.53781 8 0 11.5437 0 15.9168C0 20.2898 3.53781 23.8351 7.90162 23.8351H17.0984C21.4622 23.8351 25 20.2898 25 15.9168C25 11.5437 21.4622 8 17.0984 8ZM16.9261 22.9272C13.0637 22.9272 9.93201 19.7888 9.93201 15.9183C9.93201 12.0478 13.0637 8.90944 16.9261 8.90944C20.7885 8.90944 23.9202 12.0478 23.9202 15.9183C23.9202 19.7888 20.7885 22.9272 16.9261 22.9272Z" fill="#34C759"/>
<path d="M16.0047 4.68437C16.0047 5.68167 16.2632 6.61732 16.7169 7.42811C14.5112 7.04738 12.833 5.1206 12.833 2.80075C12.833 2.50942 12.8592 2.22426 12.9115 1.9468C13.3422 1.81578 13.8005 1.74487 14.2743 1.74487C15.0895 1.74487 15.8571 1.95451 16.5246 2.32137C16.1909 3.03967 16.0047 3.83967 16.0047 4.68437Z" fill="#34C759"/>
<path d="M22.2067 2.80077C22.2067 4.92023 20.8069 6.71137 18.8827 7.29557C18.552 7.39576 18.2074 7.46204 17.849 7.48516H17.8475C17.2676 6.70366 16.9246 5.7341 16.9246 4.68439C16.9246 4.03391 17.0568 3.41426 17.2953 2.8501C17.9674 1.26243 19.4856 0.123314 21.2838 0C21.8636 0.781503 22.2067 1.75106 22.2067 2.80077Z" fill="#34C759"/>
</g>
<defs>
<clipPath id="clip0_2_350">
<rect width="25" height="24" fill="white"/>
</clipPath>
</defs>
</svg>
