<?xml version="1.0" encoding="UTF-8"?>
<svg xmlns="http://www.w3.org/2000/svg" xmlns:xlink="http://www.w3.org/1999/xlink" width="px" height="px" viewBox="0 0 12 12" version="1.1">
<g id="surface1">
<path style=" stroke:none;fill-rule:nonzero;fill:rgb(20.392157%,78.039216%,34.901961%);fill-opacity:1;" d="M 8.207031 4 L 3.792969 4 C 1.699219 4 0 5.773438 0 7.957031 C 0 10.144531 1.699219 11.917969 3.792969 11.917969 L 8.207031 11.917969 C 10.300781 11.917969 12 10.144531 12 7.957031 C 12 5.773438 10.300781 4 8.207031 4 Z M 8.125 11.464844 C 6.269531 11.464844 4.765625 9.894531 4.765625 7.960938 C 4.765625 6.023438 6.269531 4.453125 8.125 4.453125 C 9.980469 4.453125 11.480469 6.023438 11.480469 7.960938 C 11.480469 9.894531 9.976562 11.464844 8.125 11.464844 Z M 7.683594 2.34375 C 7.679688 2.824219 7.800781 3.292969 8.023438 3.714844 C 7.429688 3.605469 6.90625 3.253906 6.5625 2.742188 C 6.21875 2.226562 6.085938 1.589844 6.199219 0.972656 C 6.777344 0.789062 7.402344 0.859375 7.933594 1.160156 C 7.765625 1.53125 7.683594 1.933594 7.683594 2.34375 Z M 10.660156 1.398438 C 10.660156 2.460938 9.988281 3.355469 9.0625 3.648438 C 8.90625 3.699219 8.738281 3.730469 8.566406 3.742188 C 8.277344 3.335938 8.121094 2.847656 8.125 2.34375 C 8.121094 1.109375 9.035156 0.0859375 10.21875 0 C 10.496094 0.390625 10.660156 0.875 10.660156 1.398438 Z M 10.660156 1.398438 "/>
</g>
</svg>
