<svg width="25" height="24" viewBox="0 0 25 24" fill="none" xmlns="http://www.w3.org/2000/svg">
<g clip-path="url(#clip0_2_350)">
<path d="M17.0984 8.16492H7.90162C3.53781 8.16492 0 11.7087 0 16.0817C0 20.4547 3.53781 24 7.90162 24H17.0984C21.4622 24 25 20.4547 25 16.0817C25 11.7087 21.4622 8.16492 17.0984 8.16492ZM16.9261 23.0921C13.0637 23.0921 9.93201 19.9537 9.93201 16.0832C9.93201 12.2127 13.0637 9.07436 16.9261 9.07436C20.7885 9.07436 23.9202 12.2127 23.9202 16.0832C23.9202 19.9537 20.7885 23.0921 16.9261 23.0921Z" fill="#34C759"/>
<path d="M16.0047 4.68437C16.0047 5.68167 16.2632 6.61732 16.7169 7.42811C14.5112 7.04738 12.833 5.1206 12.833 2.80075C12.833 2.50942 12.8592 2.22426 12.9115 1.9468C13.3422 1.81578 13.8005 1.74487 14.2743 1.74487C15.0895 1.74487 15.8571 1.95451 16.5246 2.32137C16.1909 3.03967 16.0047 3.83967 16.0047 4.68437Z" fill="#34C759"/>
<path d="M22.2067 2.80077C22.2067 4.92023 20.8069 6.71137 18.8827 7.29557C18.552 7.39576 18.2074 7.46204 17.849 7.48516H17.8475C17.2676 6.70366 16.9246 5.7341 16.9246 4.68439C16.9246 4.03391 17.0568 3.41426 17.2953 2.8501C17.9674 1.26243 19.4856 0.123314 21.2838 0C21.8636 0.781503 22.2067 1.75106 22.2067 2.80077Z" fill="#34C759"/>
</g>
<defs>
<clipPath id="clip0_2_350">
<rect width="25" height="24" fill="white"/>
</clipPath>
</defs>
</svg>
