<svg width="28" height="28" viewBox="0 0 28 28" fill="none" xmlns="http://www.w3.org/2000/svg">
<mask id="mask0_5_143" style="mask-type:luminance" maskUnits="userSpaceOnUse" x="5" y="7" width="18" height="15">
<path fill-rule="evenodd" clip-rule="evenodd" d="M22.4 9.1234C21.7819 9.40501 21.1182 9.59509 20.4203 9.67963C21.1318 9.2424 21.6785 8.54994 21.9363 7.72501C21.2699 8.1294 20.5326 8.42448 19.7476 8.58225C19.1185 7.89571 18.2226 7.46655 17.2306 7.46655C15.327 7.46655 13.7847 9.04855 13.7847 11.0005C13.7847 11.2772 13.8146 11.5476 13.8734 11.806C11.0089 11.6585 8.46932 10.2515 6.76895 8.11325C6.47277 8.63555 6.30263 9.2424 6.30263 9.89017C6.30263 11.1168 6.91126 12.198 7.83549 12.8323C7.27097 12.8135 6.73954 12.6552 6.2748 12.3902C6.27427 12.4048 6.27427 12.4204 6.27427 12.4344C6.27427 14.1472 7.46212 15.5758 9.03909 15.9005C8.75027 15.9807 8.44569 16.0243 8.13114 16.0243C7.90848 16.0243 7.69318 16.0022 7.48313 15.9613C7.92109 17.3646 9.19453 18.3866 10.7022 18.4156C9.52326 19.3633 8.03714 19.9292 6.42236 19.9292C6.14404 19.9292 5.8694 19.9126 5.60001 19.8797C7.12499 20.8812 8.93669 21.4666 10.8834 21.4666C17.2227 21.4666 20.6902 16.0814 20.6902 11.4108C20.6902 11.2579 20.686 11.1049 20.6797 10.9531C21.3534 10.455 21.9374 9.83309 22.4 9.1234Z" fill="white"/>
</mask>
<g mask="url(#mask0_5_143)">
<rect x="1.86667" y="1.8667" width="24.2667" height="24.2667" fill="#737373"/>
</g>
</svg>
