<?xml version="1.0" standalone="no"?>
<!DOCTYPE svg PUBLIC "-//W3C//DTD SVG 1.1//EN" "http://www.w3.org/Graphics/SVG/1.1/DTD/svg11.dtd" >
<svg xmlns="http://www.w3.org/2000/svg" xmlns:xlink="http://www.w3.org/1999/xlink" version="1.1">
<metadata>
Created by FontForge 20170731 at Sun Dec 25 17:26:24 2022
 By Aleksey,,,
Copyright (c) 1993 Adobe Systems Incorporated.  All Rights Reserved.Helvetica is a trademark of Linotype-Hell AG and/or its subsidiaries.
</metadata>
<defs>
<font id="BMWHelvetica-Roman" horiz-adv-x="1286" >
  <font-face 
    font-family="BMW Helvetica 55"
    font-weight="500"
    font-stretch="normal"
    units-per-em="2048"
    panose-1="0 0 0 0 0 0 0 0 0 0"
    ascent="1638"
    descent="-410"
    x-height="1118"
    cap-height="1544"
    bbox="-344 -455 2345 2060"
    underline-thickness="102"
    underline-position="-409"
    unicode-range="U+0020-FB02"
  />
<missing-glyph horiz-adv-x="643" 
 />
    <glyph glyph-name=".notdef" horiz-adv-x="643" 
 />
    <glyph glyph-name=".null" horiz-adv-x="0" 
 />
    <glyph glyph-name="nonmarkingreturn" horiz-adv-x="682" 
 />
    <glyph glyph-name="space" unicode=" " horiz-adv-x="643" 
 />
    <glyph glyph-name="exclam" unicode="!" horiz-adv-x="600" 
d="M403 1544v-475l-55 -674h-96l-53 674v475h204zM180 0v240h240v-240h-240z" />
    <glyph glyph-name="quotedbl" unicode="&#x22;" horiz-adv-x="913" 
d="M231 985v559h148v-559h-148zM535 985v559h147v-559h-147z" />
    <glyph glyph-name="numbersign" unicode="#" 
d="M1108 592v-148h-225l-64 -444h-149l63 444h-270l-62 -444h-149l63 444h-204v148h225l45 326h-205v145h225l62 444h149l-63 -444h270l64 444h149l-61 -444h205v-145h-226l-47 -326h205zM801 918h-271l-45 -326h271z" />
    <glyph glyph-name="dollar" unicode="$" 
d="M592 901v506q-111 -11 -179.5 -77t-68.5 -183q0 -56 17 -96.5t53.5 -68.5t76.5 -45.5t101 -35.5zM711 680v-543q129 10 203.5 77t74.5 200q0 59 -20 103t-61 74.5t-85.5 49.5t-111.5 39zM102 471h185q4 -140 87.5 -226.5t217.5 -107.5v572q-120 29 -198.5 61t-136 80.5
t-82.5 115t-25 160.5q0 193 126 318t316 137v141h119v-143q340 -42 426 -428h-185q-20 104 -82 168.5t-159 81.5v-533l129 -32q39 -10 79 -27.5t89.5 -51t87 -76.5t63 -108t25.5 -141q0 -204 -130.5 -327.5t-342.5 -141.5v-178h-119v178q-214 22 -342.5 153.5t-147.5 354.5z
" />
    <glyph glyph-name="percent" unicode="%" horiz-adv-x="2138" 
d="M1255 401q0 72 10.5 134.5t36.5 120t65.5 98t100.5 64.5t138 24q346 0 346 -432q0 -70 -11.5 -132t-38.5 -118.5t-66 -97.5t-98 -65t-132 -24q-95 0 -165 33.5t-109.5 94t-58 135t-18.5 165.5zM1417 406q0 -314 182 -314q189 0 189 318q0 313 -182 313q-57 0 -96.5 -30
t-58.5 -80.5t-26.5 -100.5t-7.5 -106zM186 1094q0 72 10.5 134.5t36.5 120t65.5 97.5t100.5 64t138 24q346 0 346 -434q0 -69 -11.5 -131t-38 -118t-65.5 -96.5t-98.5 -64.5t-132.5 -24q-95 0 -165 33.5t-109.5 94t-58 135t-18.5 165.5zM348 1098q0 -314 182 -314
q191 0 191 316q0 313 -184 313q-57 0 -96.5 -29.5t-58.5 -80t-26.5 -100t-7.5 -105.5zM393 -47l1163 1608h185l-1161 -1608h-187z" />
    <glyph glyph-name="ampersand" unicode="&#x26;" horiz-adv-x="1462" 
d="M940 319l-354 426q-65 -37 -105 -64.5t-82 -69.5t-62 -95t-20 -119q0 -113 89 -186.5t204 -73.5q104 0 188 47.5t142 134.5zM1206 0l-164 193q-68 -106 -187 -163t-251 -57q-86 0 -157.5 17t-120 44.5t-86 65.5t-59 76t-35.5 80.5t-18.5 75.5t-4.5 63q0 71 19 132
t50 107.5t79.5 89t97.5 73.5t114 65q-14 20 -42 58t-41.5 57.5t-33 53t-29 60t-17 62.5t-7.5 74q0 132 94 224.5t255 92.5q99 0 182 -34t136.5 -107.5t53.5 -173.5q0 -236 -289 -402l279 -338q43 112 49 240h176q-10 -130 -30.5 -201.5t-73.5 -179.5l301 -348h-240zM645 948
q42 27 71.5 49.5t64 57t53 75.5t18.5 87q0 70 -48.5 117.5t-129.5 47.5q-71 0 -124.5 -43t-53.5 -122q0 -22 7.5 -47t15.5 -43.5t27.5 -47.5t29.5 -42.5t35.5 -46t33.5 -42.5z" />
    <glyph glyph-name="quotesingle" unicode="'" horiz-adv-x="569" 
d="M211 985v559h147v-559h-147z" />
    <glyph glyph-name="parenleft" unicode="(" horiz-adv-x="600" 
d="M602 -428h-141q-167 262 -252.5 502.5t-85.5 509.5q0 256 87.5 517t250.5 480h141q-150 -238 -217.5 -482t-67.5 -515q0 -279 67.5 -524.5t217.5 -487.5z" />
    <glyph glyph-name="parenright" unicode=")" horiz-adv-x="600" 
d="M139 -428h-141q150 236 217.5 480.5t67.5 516.5q0 280 -67 524.5t-218 487.5h141q167 -264 252.5 -504t85.5 -508q0 -257 -87 -518t-251 -479z" />
    <glyph glyph-name="asterisk" unicode="*" horiz-adv-x="815" 
d="M463 1544v-244l231 86l43 -104l-235 -82l143 -196l-88 -68l-149 209l-142 -209l-96 68l139 196l-229 82l39 104l229 -86v244h115z" />
    <glyph glyph-name="plus" unicode="+" horiz-adv-x="1392" 
d="M770 1094v-473h471v-148h-471v-473h-147v473h-471v148h471v473h147z" />
    <glyph glyph-name="comma" unicode="," horiz-adv-x="643" 
d="M203 0v238h237v-215q0 -129 -57.5 -217.5t-177.5 -122.5v108q45 15 75.5 52.5t41 78t8.5 78.5h-127z" />
    <glyph glyph-name="hyphen" unicode="-" horiz-adv-x="901" 
d="M139 514v174h623v-174h-623z" />
    <glyph glyph-name="period" unicode="." horiz-adv-x="643" 
d="M203 0v238h237v-238h-237z" />
    <glyph glyph-name="slash" unicode="/" horiz-adv-x="774" 
d="M-12 -37l641 1618h157l-641 -1618h-157z" />
    <glyph glyph-name="zero" unicode="0" 
d="M133 752q0 86 3 151.5t14.5 151.5t32 148.5t59 128.5t91.5 107.5t132.5 68t179.5 26.5q78 0 143 -16t113.5 -43t87 -69t64.5 -86t45 -102.5t29.5 -111t16.5 -119.5t7.5 -118.5t1.5 -116.5t-1.5 -116t-7.5 -117.5t-16.5 -118.5t-29.5 -110.5t-45 -102.5t-64.5 -86t-87 -69
t-113.5 -43t-143 -16q-100 0 -179.5 26.5t-132.5 68t-91.5 107.5t-59 128.5t-32 148t-14.5 150.5t-3 150zM328 754q0 -79 2 -127t10 -132t28.5 -137t54 -109t90 -84t132.5 -28q64 0 115 23.5t83.5 57.5t55.5 92t34 104.5t17 119t7 113t1 107.5q0 51 -0.5 81.5t-3.5 87t-8 93
t-16 88t-26.5 85.5t-39.5 71t-54 59t-72.5 36.5t-92.5 14.5q-51 0 -93.5 -14.5t-73.5 -36.5t-55 -59t-39.5 -71t-26.5 -85.5t-16.5 -88t-8.5 -93t-3.5 -87t-0.5 -81.5z" />
    <glyph glyph-name="one" unicode="1" 
d="M815 1534v-1534h-184v1098h-398v147q390 0 441 289h141z" />
    <glyph glyph-name="two" unicode="2" 
d="M324 991h-185q-11 238 122.5 390.5t371.5 152.5q209 0 345 -117t136 -325q0 -66 -13.5 -124t-41.5 -106.5t-59.5 -88t-78 -78t-86 -66.5t-94.5 -62q-20 -12 -71 -42.5t-73.5 -44t-65.5 -42t-64.5 -47t-53 -48t-48 -55t-32 -58.5t-22.5 -68h787v-162h-1002q8 88 27 162
t51.5 133t66.5 103.5t86 88t93.5 72.5t105.5 68q90 55 142.5 90.5t107 81.5t82 86.5t45 93.5t17.5 115q0 123 -86 199.5t-211 76.5q-77 0 -137.5 -33t-95.5 -88.5t-51.5 -121t-14.5 -136.5z" />
    <glyph glyph-name="three" unicode="3" 
d="M516 721v156q44 -3 80 -3q124 0 208.5 65.5t84.5 184.5q0 117 -76 181.5t-197 64.5q-73 0 -129.5 -26.5t-90.5 -73t-51.5 -105t-18.5 -127.5h-183q8 226 129 361t344 135q137 0 240 -43t165 -137.5t62 -231.5q0 -98 -60.5 -180.5t-152.5 -124.5v-4q135 -30 206 -130
t71 -243q0 -112 -41.5 -202t-114 -147t-167 -87.5t-203.5 -30.5q-236 0 -375 133.5t-135 366.5h182q6 -154 90 -245t238 -91q139 0 235 80t96 215q0 140 -91.5 217.5t-233.5 77.5q-59 0 -111 -6z" />
    <glyph glyph-name="four" unicode="4" 
d="M950 1534v-1014h209v-162h-209v-358h-172v358h-672v179l699 997h145zM264 520h514v752h-4z" />
    <glyph glyph-name="five" unicode="5" 
d="M1061 1507v-161h-619l-82 -443l5 -4q49 55 126 83t160 28q103 0 192 -33.5t157 -97.5t106.5 -166t38.5 -230q0 -99 -34.5 -189t-99 -162.5t-168.5 -115.5t-233 -43q-134 0 -243 52t-176 153.5t-70 235.5h184q8 -120 97 -198.5t225 -78.5q140 0 231.5 94t91.5 269
q0 153 -96 250.5t-250 97.5q-163 0 -285 -146l-157 9l143 796h756z" />
    <glyph glyph-name="six" unicode="6" 
d="M659 823q-149 0 -233 -98t-84 -248q0 -147 85 -243.5t232 -96.5q143 0 226.5 98t83.5 240q0 151 -80 249.5t-230 98.5zM1120 1141h-184q-12 105 -81 167t-177 62q-351 0 -371 -582l4 -4q123 201 383 201q215 0 342 -139.5t127 -356.5q0 -71 -15.5 -139.5t-53.5 -138
t-95 -121.5t-147 -84.5t-201 -32.5q-528 0 -528 738q0 133 16.5 248t57 223t103 184.5t162 122t226.5 45.5q189 0 302 -102.5t130 -290.5z" />
    <glyph glyph-name="seven" unicode="7" 
d="M1145 1507v-157q-233 -232 -399.5 -612.5t-188.5 -737.5h-205q25 374 188.5 720t417.5 613h-804v174h991z" />
    <glyph glyph-name="eight" unicode="8" 
d="M965 434q0 125 -92.5 209t-223.5 84q-140 0 -233.5 -82t-93.5 -213q0 -136 91 -215.5t238 -79.5q136 0 225 84.5t89 212.5zM1098 1141q0 -101 -58.5 -188t-152.5 -130q135 -42 203.5 -140.5t68.5 -242.5q0 -215 -144.5 -341t-363.5 -126q-112 0 -206.5 29.5t-166 86
t-111.5 147t-40 204.5q0 137 71.5 238t198.5 145q-96 40 -155.5 128t-59.5 190q0 92 37 168t100 124.5t144 74.5t170 26q121 0 213.5 -33.5t146 -90.5t79.5 -125t26 -144zM903 1135q0 112 -71 173.5t-185 61.5q-118 0 -194 -62t-76 -173q0 -121 76 -183.5t198 -62.5
q110 0 181 66t71 180z" />
    <glyph glyph-name="nine" unicode="9" 
d="M940 1020q0 148 -83.5 249t-231.5 101q-64 0 -115.5 -19.5t-85.5 -53.5t-57 -80.5t-33 -98.5t-10 -110q0 -130 86.5 -227t216.5 -97q140 0 226.5 98t86.5 238zM162 371h182q10 -109 89.5 -171.5t193.5 -62.5q168 0 252.5 147t93.5 445l-4 4q-53 -97 -149 -155t-208 -58
q-229 0 -356 141t-127 373q0 221 140.5 360.5t363.5 139.5q90 0 164.5 -20t143 -71.5t115 -132.5t74 -210.5t27.5 -298.5q0 -407 -129 -617.5t-401 -210.5q-199 0 -323.5 102.5t-141.5 295.5z" />
    <glyph glyph-name="colon" unicode=":" horiz-adv-x="643" 
d="M203 0v238h237v-238h-237zM440 1116v-237h-237v237h237z" />
    <glyph glyph-name="semicolon" unicode=";" horiz-adv-x="643" 
d="M203 0v238h237v-215q2 -128 -56.5 -217t-178.5 -123v108q45 15 75.5 52.5t41 78t8.5 78.5h-127zM440 1116v-237h-237v237h237z" />
    <glyph glyph-name="less" unicode="&#x3c;" horiz-adv-x="1392" 
d="M1241 1112v-147l-911 -418l911 -418v-145l-1089 495v135z" />
    <glyph glyph-name="equal" unicode="=" horiz-adv-x="1392" 
d="M1241 840v-148h-1089v148h1089zM152 256v145h1089v-145h-1089z" />
    <glyph glyph-name="greater" unicode="&#x3e;" horiz-adv-x="1392" 
d="M152 -16v145l909 418l-909 418v147l1089 -498v-135z" />
    <glyph glyph-name="question" unicode="?" horiz-adv-x="1218" 
d="M311 1061h-184q-3 227 129.5 373.5t355.5 146.5q203 0 329 -115.5t126 -316.5q0 -64 -14.5 -118.5t-43.5 -100.5t-56.5 -78t-69.5 -72q-32 -30 -41 -38.5t-36.5 -36.5t-37.5 -42t-28.5 -41.5t-25.5 -49t-13.5 -51t-6.5 -60.5v-84h-184v100q0 26 3.5 51.5t7.5 45.5
t15.5 44t17 38t22.5 37t22.5 32t27 32t25.5 28t28 29l26 26q77 77 99 105q77 99 68 220q-8 119 -76.5 186.5t-183.5 67.5q-149 0 -226 -99.5t-75 -258.5zM479 0v240h240v-240h-240z" />
    <glyph glyph-name="at" unicode="@" horiz-adv-x="1857" 
d="M977 1092q-73 0 -139 -44t-109.5 -111.5t-69.5 -146t-26 -149.5q0 -92 52 -151.5t132 -59.5q89 0 169 79t123.5 185t43.5 197q0 78 -53.5 139.5t-122.5 61.5zM1405 1198l-180 -614q-2 -8 -7.5 -27.5t-9 -30.5t-6 -26t-2.5 -27q0 -67 53 -67q64 0 134 75t116.5 192.5
t46.5 229.5q0 124 -49 231t-130 177.5t-186.5 110.5t-219.5 40q-136 0 -258 -55.5t-209.5 -149t-139 -221.5t-51.5 -268q0 -141 54 -269t144 -219t213 -144.5t257 -53.5q154 0 299.5 71.5t236.5 190.5h138q-104 -177 -286.5 -279t-391.5 -102q-168 0 -319 63.5t-258.5 172
t-170.5 259.5t-63 320q0 164 64.5 313t172.5 256t256 170.5t310 63.5q199 0 366.5 -84.5t268 -238t100.5 -343.5q0 -135 -50.5 -256t-127 -200.5t-164 -125.5t-164.5 -46q-58 0 -97 36.5t-42 104.5h-6q-52 -62 -123 -103.5t-146 -41.5q-135 0 -222 98.5t-87 243.5
q0 113 37.5 223t102.5 197t161.5 140.5t206.5 53.5q175 0 244 -178l49 137h135z" />
    <glyph glyph-name="A" unicode="A" horiz-adv-x="1503" 
d="M35 0l602 1544h227l604 -1544h-227l-170 465h-651l-174 -465h-211zM745 1358l-262 -721h525l-258 721h-5z" />
    <glyph glyph-name="B" unicode="B" horiz-adv-x="1562" 
d="M412 707v-535h514q132 0 210 75.5t78 203.5q0 72 -27 124t-75.5 80t-105 40t-125.5 12h-469zM205 0v1544h561q70 0 111 -1t105.5 -6t111.5 -17.5t80 -32.5q81 -47 131.5 -130t50.5 -192q0 -122 -60.5 -211.5t-169.5 -134.5v-4q141 -29 218 -128.5t77 -244.5
q0 -86 -31 -164.5t-88 -141t-148 -99.5t-202 -37h-747zM412 1370v-489h409q172 0 251 60.5t79 184.5q0 63 -18 108t-46 71t-73.5 41t-89 19.5t-103.5 4.5h-409z" />
    <glyph glyph-name="C" unicode="C" horiz-adv-x="1650" 
d="M1503 1079h-207q-31 158 -148.5 243t-283.5 85q-107 0 -195 -34t-148 -92.5t-101 -138.5t-59.5 -170.5t-18.5 -189.5q0 -136 30.5 -250t92.5 -204t164.5 -140.5t236.5 -50.5q197 0 314 123t133 322h205q-29 -291 -204 -455t-464 -164q-141 0 -259 40.5t-202 113
t-142 173.5t-86 221.5t-28 256.5q0 134 30 255.5t91.5 223.5t148 176.5t205.5 116t258 41.5q251 0 426 -131.5t211 -370.5z" />
    <glyph glyph-name="D" unicode="D" horiz-adv-x="1609" 
d="M205 0v1544h530q361 0 551.5 -183.5t190.5 -551.5q0 -809 -742 -809h-530zM412 1370v-1198h340q38 0 74 3.5t90.5 18t100 38.5t94.5 70t83 108t56 157.5t22 212.5q0 289 -120.5 439.5t-393.5 150.5h-346z" />
    <glyph glyph-name="E" unicode="E" horiz-adv-x="1398" 
d="M205 0v1544h1067v-174h-860v-489h800v-174h-800v-535h866v-172h-1073z" />
    <glyph glyph-name="F" unicode="F" horiz-adv-x="1312" 
d="M205 0v1544h1016v-174h-809v-489h708v-174h-708v-707h-207z" />
    <glyph glyph-name="G" unicode="G" horiz-adv-x="1732" 
d="M1419 0l-55 193q-85 -116 -217.5 -173t-278.5 -57q-168 0 -308.5 65t-232.5 173.5t-143 248.5t-51 291q0 136 29 260.5t89.5 230t147 183.5t206.5 122t263 44q129 0 238.5 -30t198 -90.5t147.5 -160t80 -231.5h-205q-30 168 -154 253t-305 85q-135 0 -239 -55
t-165.5 -149t-92.5 -208t-31 -243q0 -122 35 -232t99.5 -196t166.5 -136.5t227 -50.5q234 0 369.5 143.5t126.5 360.5h-494v172h678v-813h-129z" />
    <glyph glyph-name="H" unicode="H" horiz-adv-x="1638" 
d="M205 0v1544h209v-663h815v663h205v-1544h-205v707h-815v-707h-209z" />
    <glyph glyph-name="I" unicode="I" horiz-adv-x="614" 
d="M205 0v1544h205v-1544h-205z" />
    <glyph glyph-name="J" unicode="J" horiz-adv-x="1163" 
d="M958 1544v-1159q0 -66 -14 -124.5t-47.5 -114t-84.5 -95.5t-130.5 -64t-179.5 -24q-217 0 -334 116.5t-117 334.5v94h207v-66q0 -71 11 -123.5t37.5 -95t76.5 -64.5t123 -22q134 0 190 71t56 208v1128h206z" />
    <glyph glyph-name="K" unicode="K" horiz-adv-x="1507" 
d="M205 0v1544h207v-770l782 770h266l-651 -622l676 -922h-258l-559 780l-256 -239v-541h-207z" />
    <glyph glyph-name="L" unicode="L" horiz-adv-x="1251" 
d="M205 0v1544h207v-1372h817v-172h-1024z" />
    <glyph glyph-name="M" unicode="M" horiz-adv-x="1947" 
d="M205 0v1544h282l486 -1298l489 1298h281v-1544h-195v1284h-4l-481 -1284h-176l-481 1284h-7v-1284h-194z" />
    <glyph glyph-name="N" unicode="N" horiz-adv-x="1642" 
d="M205 0v1544h221l813 -1251h4v1251h195v-1544h-226l-806 1239h-5v-1239h-196z" />
    <glyph glyph-name="O" unicode="O" horiz-adv-x="1744" 
d="M133 772q0 127 29.5 245.5t90.5 221t147 178.5t207.5 120t264.5 44q144 0 265.5 -44t208 -120t147.5 -179t90 -221t29 -245t-29 -245t-90 -221t-147.5 -179t-208 -120t-265.5 -44q-143 0 -264.5 44t-207.5 120t-147 178.5t-90.5 221t-29.5 245.5zM338 772
q0 -96 19 -185.5t61 -172t103 -143.5t151.5 -97.5t199.5 -36.5t200 36.5t152 97.5t103 143.5t61 172t19 185.5t-19 185.5t-61 172t-103 143.5t-152 97.5t-200 36.5t-199.5 -36.5t-151.5 -97.5t-103 -143.5t-61 -172t-19 -185.5z" />
    <glyph glyph-name="P" unicode="P" horiz-adv-x="1464" 
d="M205 0v1544h678q228 0 350.5 -120.5t122.5 -336.5t-122.5 -336.5t-350.5 -119.5h-471v-631h-207zM412 1370v-565h401q338 -3 338 282q0 283 -338 283h-401z" />
    <glyph glyph-name="Q" unicode="Q" horiz-adv-x="1744" 
d="M1581 -4l-102 -129l-236 188q-159 -92 -371 -92q-143 0 -264.5 44t-207.5 120t-147 178.5t-90.5 221t-29.5 245.5t29.5 245.5t90.5 221t147 178.5t207.5 120t264.5 44q144 0 265.5 -44t208 -120t147.5 -179t90 -221t29 -245q0 -181 -59.5 -341.5t-174.5 -272.5zM915 315
l109 125l205 -164q89 86 133.5 217.5t44.5 278.5q0 96 -19 185.5t-61 172t-103 143.5t-152 97.5t-200 36.5t-199.5 -36.5t-151.5 -97.5t-103 -143.5t-61 -172t-19 -185.5t19 -185.5t61 -172t103 -143.5t151.5 -97.5t199.5 -36.5q117 0 215 43z" />
    <glyph glyph-name="R" unicode="R" horiz-adv-x="1550" 
d="M412 831h428q78 0 138 12t111.5 41.5t79 86t27.5 137.5q0 119 -68 190.5t-206 71.5h-510v-539zM205 0v1544h727q218 0 343.5 -109t125.5 -296q0 -145 -67 -249t-201 -142v-5q65 -13 109.5 -42t68.5 -74t35.5 -91t17.5 -110q3 -30 6.5 -90.5t7 -97t12 -84.5t25 -86
t41.5 -68h-229q-26 28 -33.5 87t-10 147.5t-14.5 146.5q-7 52 -15 88t-26.5 74.5t-44.5 62t-69 38.5t-101 15h-501v-659h-207z" />
    <glyph glyph-name="S" unicode="S" horiz-adv-x="1462" 
d="M1286 1092h-194q-17 160 -116.5 237.5t-264.5 77.5q-69 0 -128 -13t-109.5 -42t-79.5 -82t-29 -125q0 -28 7.5 -52.5t19 -43.5t33.5 -37t41.5 -30.5t52.5 -25t57.5 -21t66 -18.5t68.5 -16t73.5 -16.5t73.5 -16.5q60 -13 106 -26t99.5 -33t93.5 -43.5t78.5 -57t62.5 -73.5
t39 -94t15 -117q0 -96 -36 -174.5t-95 -130.5t-138 -88t-162.5 -52t-170.5 -16q-106 0 -199.5 20t-174.5 63.5t-139.5 106.5t-92 154t-33.5 201h194q0 -94 37.5 -167t101.5 -116.5t143 -65.5t169 -22q59 0 111.5 7.5t105 27.5t90 50.5t61 81t23.5 114.5q0 41 -13.5 75
t-33 59t-55.5 47t-68 36t-83.5 29t-88.5 23.5t-97 21.5q-12 3 -19 4t-17 3.5t-19 4.5q-62 13 -105.5 24.5t-99.5 30t-94 39t-78 51.5t-64 67t-39 86t-15 109q0 113 47.5 202t127.5 142.5t178.5 81t207.5 27.5q120 0 220 -29t176.5 -87.5t121.5 -153.5t49 -219z" />
    <glyph glyph-name="T" unicode="T" horiz-adv-x="1296" 
d="M545 0v1370h-514v174h1235v-174h-514v-1370h-207z" />
    <glyph glyph-name="U" unicode="U" horiz-adv-x="1652" 
d="M1448 1544v-987q0 -289 -158.5 -441.5t-449.5 -152.5q-306 0 -470.5 147t-164.5 447v987h207v-987q0 -203 111.5 -311.5t316.5 -108.5q195 0 299 108t104 312v987h205z" />
    <glyph glyph-name="V" unicode="V" horiz-adv-x="1380" 
d="M1354 1544l-549 -1544h-234l-544 1544h223l440 -1339h4l447 1339h213z" />
    <glyph glyph-name="W" unicode="W" horiz-adv-x="2109" 
d="M2030 1544l-414 -1544h-213l-352 1296h-4l-359 -1296h-213l-395 1544h209l303 -1284h4l346 1284h223l340 -1284h6l314 1284h205z" />
    <glyph glyph-name="X" unicode="X" horiz-adv-x="1382" 
d="M29 0l538 793l-508 751h246l385 -604l402 604h229l-510 -751l543 -793h-250l-416 637l-428 -637h-231z" />
    <glyph glyph-name="Y" unicode="Y" horiz-adv-x="1392" 
d="M1393 1544l-590 -913v-631h-205v631l-598 913h244l463 -735l452 735h234z" />
    <glyph glyph-name="Z" unicode="Z" horiz-adv-x="1421" 
d="M96 0v172l961 1198h-887v174h1128v-174l-956 -1198h983v-172h-1229z" />
    <glyph glyph-name="bracketleft" unicode="[" horiz-adv-x="600" 
d="M580 1581v-147h-232v-1715h232v-147h-404v2009h404z" />
    <glyph glyph-name="backslash" unicode="\" horiz-adv-x="774" 
d="M145 1581l641 -1618h-157l-641 1618h157z" />
    <glyph glyph-name="bracketright" unicode="]" horiz-adv-x="600" 
d="M20 -428v147h232v1715h-232v147h404v-2009h-404z" />
    <glyph glyph-name="asciicircum" unicode="^" horiz-adv-x="1392" 
d="M156 571l471 936h139l471 -936h-152l-391 779l-385 -779h-153z" />
    <glyph glyph-name="underscore" unicode="_" horiz-adv-x="1024" 
d="M1024 -256h-1024v102h1024v-102z" />
    <glyph glyph-name="grave" unicode="`" horiz-adv-x="514" 
d="M252 1272l-283 309h236l186 -309h-139z" />
    <glyph glyph-name="a" unicode="a" horiz-adv-x="1220" 
d="M862 389v189q-25 -18 -67 -31t-76.5 -18.5t-97 -13.5t-91.5 -13q-50 -10 -87 -23t-70 -35t-50.5 -58t-17.5 -85q0 -85 61.5 -124.5t155.5 -39.5q86 0 154.5 24.5t107 63.5t58.5 81t20 83zM1161 147v-143q-57 -31 -131 -31t-115 43t-41 131q-149 -174 -393 -174
q-79 0 -144.5 18.5t-117 55.5t-80 98t-28.5 142q0 53 11.5 97t29.5 75.5t48.5 57.5t59.5 43t71.5 31t76.5 22.5t81 17.5q36 7 84 14t79.5 11.5t68.5 12t60 17t43.5 24.5t30 36.5t9.5 50.5q0 46 -15 80.5t-38 53.5t-57.5 31t-66.5 15.5t-71 3.5q-128 0 -200 -47.5t-78 -163.5
h-184q4 100 43 174.5t105 117t147 63t178 20.5q67 0 122.5 -6.5t112.5 -27t96 -53t64 -89t25 -131.5v-576q0 -33 0.5 -47t3.5 -33t9 -26.5t17 -13t29 -5.5q26 0 55 10z" />
    <glyph glyph-name="b" unicode="b" horiz-adv-x="1341" 
d="M1036 569q0 81 -21 153t-62 131t-109 93.5t-154 34.5q-71 0 -129.5 -24t-97.5 -64t-65.5 -94.5t-38 -114.5t-11.5 -125q0 -85 20 -159t61 -134t110.5 -94.5t160.5 -34.5q73 0 131.5 24t96 64.5t62.5 97t35.5 117.5t10.5 129zM172 0v1544h182v-577h6q42 88 138.5 133
t218.5 45q125 0 224.5 -47.5t162 -129.5t95 -187.5t32.5 -225.5t-32 -224t-94 -184.5t-160.5 -127t-223.5 -46.5q-101 0 -203 43t-158 134h-6v-150h-182z" />
    <glyph glyph-name="c" unicode="c" horiz-adv-x="1220" 
d="M1120 760h-190q-22 105 -93 163t-184 58q-96 0 -166 -35.5t-108.5 -98.5t-56 -137.5t-17.5 -164.5q0 -80 18.5 -151t56.5 -129.5t102.5 -93t148.5 -34.5q132 0 210.5 72t96.5 201h188q-31 -207 -157 -322t-334 -115q-250 0 -387 157t-137 415q0 128 33 236t97 190
t166 128t232 46q96 0 178 -23.5t146.5 -69.5t105.5 -120.5t51 -171.5z" />
    <glyph glyph-name="d" unicode="d" horiz-adv-x="1341" 
d="M1169 1544v-1544h-182v152h-6q-42 -89 -138 -134t-218 -45q-125 0 -224.5 47.5t-162 129t-95 187t-32.5 226.5q0 120 32 224t94 184.5t160.5 127t223.5 46.5q100 0 202 -43t158 -133h6v575h182zM305 549q0 -81 21 -153t62 -131t109 -93.5t154 -34.5q71 0 129.5 23.5
t97.5 64t65.5 94.5t38 113.5t11.5 124.5q0 86 -20 160t-61 134.5t-110.5 95t-160.5 34.5q-73 0 -131.5 -24t-96 -64.5t-62.5 -97t-35.5 -117.5t-10.5 -129z" />
    <glyph glyph-name="e" unicode="e" horiz-adv-x="1253" 
d="M942 354h182q-36 -183 -162 -282t-315 -99q-131 0 -232.5 44t-166 123.5t-99 186t-38.5 236.5q0 251 149 416.5t377 165.5q95 0 175 -28.5t134.5 -78t95 -112.5t63 -136t32 -144.5t6.5 -141.5h-838q-2 -75 18 -140t61.5 -116.5t110.5 -81t158 -29.5q116 0 191 55t98 162z
M305 666h643q-8 134 -98 224.5t-225 90.5q-140 0 -225.5 -90t-94.5 -225z" />
    <glyph glyph-name="f" unicode="f" horiz-adv-x="665" 
d="M229 0v956h-188v162h188v166q0 136 78.5 206.5t229.5 70.5q61 0 120 -17v-160q-50 15 -104 15q-70 0 -105.5 -28t-35.5 -97v-156h217v-162h-217v-956h-183z" />
    <glyph glyph-name="g" unicode="g" horiz-adv-x="1306" 
d="M621 150q87 0 153.5 37.5t104.5 101t56.5 137.5t18.5 156q0 61 -10.5 117t-35 108t-60 90.5t-90 61t-121.5 22.5q-86 0 -151.5 -33t-104 -90.5t-57.5 -128.5t-19 -154q0 -81 16 -152t50.5 -134.5t98.5 -101t151 -37.5zM1135 1118v-1024q0 -549 -519 -549
q-83 0 -159.5 17.5t-145 54.5t-111 103.5t-46.5 154.5h184q3 -48 31 -85t71.5 -57t91 -30t95.5 -10q174 0 255 113t81 311v73h-5q-44 -98 -140 -150t-208 -52q-122 0 -218.5 45t-157 123.5t-92 179.5t-31.5 217q0 83 16 163t54.5 159t96 138t147.5 95.5t202 36.5
q108 0 196 -48t138 -139h-3h5v160h172z" />
    <glyph glyph-name="h" unicode="h" horiz-adv-x="1267" 
d="M172 0v1544h182v-590h4q43 94 143.5 142.5t211.5 48.5q107 0 183 -29.5t119 -86t62 -128.5t19 -166v-735h-183v758q0 102 -61.5 162.5t-165.5 60.5q-162 0 -247 -96.5t-85 -253.5v-631h-182z" />
    <glyph glyph-name="i" unicode="i" horiz-adv-x="528" 
d="M172 0v1118h184v-1118h-184zM356 1544v-225h-184v225h184z" />
    <glyph glyph-name="j" unicode="j" horiz-adv-x="528" 
d="M356 1118v-1261q0 -144 -71 -214.5t-197 -70.5q-52 0 -96 8v158q27 -4 76 -4q60 0 82 33t22 120v1231h184zM356 1544v-225h-184v225h184z" />
    <glyph glyph-name="k" unicode="k" horiz-adv-x="1161" 
d="M172 0v1544h184v-915l510 489h246l-442 -407l475 -711h-234l-383 584l-172 -160v-424h-184z" />
    <glyph glyph-name="l" unicode="l" horiz-adv-x="528" 
d="M172 0v1544h184v-1544h-184z" />
    <glyph glyph-name="m" unicode="m" horiz-adv-x="1910" 
d="M172 0v1118h172v-164h4q125 191 361 191q110 0 192.5 -47.5t114.5 -143.5q57 89 150.5 140t199.5 51q175 0 274 -79.5t99 -246.5v-819h-185v733q0 56 -9 97.5t-31.5 77.5t-66.5 54.5t-108 18.5q-133 0 -212.5 -78t-79.5 -207v-696h-185v733q0 119 -46.5 183.5
t-162.5 64.5q-62 0 -114.5 -21.5t-85.5 -54.5t-56.5 -72.5t-33 -74.5t-9.5 -62v-696h-182z" />
    <glyph glyph-name="n" unicode="n" horiz-adv-x="1267" 
d="M172 0v1118h172v-178h4q115 205 365 205q107 0 183 -29.5t119 -86t62 -128.5t19 -166v-735h-183v758q0 102 -61.5 162.5t-165.5 60.5q-162 0 -247 -96.5t-85 -253.5v-631h-182z" />
    <glyph glyph-name="o" unicode="o" horiz-adv-x="1306" 
d="M111 557q0 168 60.5 299t185 210t296.5 79q130 0 234 -45.5t171 -125t102.5 -186t35.5 -231.5q0 -123 -35.5 -229t-102.5 -185t-171 -124.5t-234 -45.5t-233.5 45t-170.5 124.5t-102.5 185.5t-35.5 229zM305 557q0 -196 99 -308t249 -112t249 112t99 308q0 198 -99 311
t-249 113t-249 -113t-99 -311z" />
    <glyph glyph-name="p" unicode="p" horiz-adv-x="1341" 
d="M1036 569q0 81 -21 153t-62 131t-109 93.5t-154 34.5q-71 0 -129.5 -24t-97.5 -64t-65.5 -94.5t-38 -114.5t-11.5 -125q0 -85 20 -159t61 -134t110.5 -94.5t160.5 -34.5q73 0 131.5 24t96 64.5t62.5 97t35.5 117.5t10.5 129zM172 -428v1546h182v-151h6q42 88 138.5 133
t218.5 45q125 0 224.5 -47.5t162 -129.5t95 -187.5t32.5 -225.5t-32 -224t-94 -184.5t-160.5 -127t-223.5 -46.5q-101 0 -203 43t-158 134h-6v-578h-182z" />
    <glyph glyph-name="q" unicode="q" horiz-adv-x="1341" 
d="M1169 1118v-1546h-182v580h-6q-42 -89 -138 -134t-218 -45q-125 0 -224.5 47.5t-162 129t-95 187t-32.5 226.5q0 120 32 224t94 184.5t160.5 127t223.5 46.5q100 0 202 -43t158 -133h6v149h182zM305 549q0 -81 21 -153t62 -131t109 -93.5t154 -34.5q71 0 129.5 23.5
t97.5 64t65.5 94.5t38 113.5t11.5 124.5q0 86 -20 160t-61 134.5t-110.5 95t-160.5 34.5q-73 0 -131.5 -24t-96 -64.5t-62.5 -97t-35.5 -117.5t-10.5 -129z" />
    <glyph glyph-name="r" unicode="r" horiz-adv-x="774" 
d="M172 0v1118h174v-235h4q68 137 166.5 201.5t245.5 60.5v-197q-215 0 -310.5 -114.5t-95.5 -335.5v-498h-184z" />
    <glyph glyph-name="s" unicode="s" horiz-adv-x="1132" 
d="M92 352h182q6 -114 89.5 -164.5t211.5 -50.5q39 0 73 3.5t71.5 14.5t64.5 28.5t44.5 48t17.5 71.5q0 37 -19 66.5t-42 47t-74.5 35.5t-81.5 25t-98 22q-33 7 -50 11q-64 14 -109 28t-97 39.5t-84.5 56.5t-54 80t-21.5 111q0 65 24.5 119.5t66 91t96 61.5t112.5 36.5
t118 11.5q441 0 459 -352h-184q-6 68 -46 111.5t-93.5 60t-120.5 16.5q-45 0 -84 -6.5t-75.5 -21.5t-57.5 -44t-21 -69q0 -24 9.5 -45t23 -36t38.5 -28.5t47 -22.5t57.5 -18.5t60.5 -15t66 -14.5t65 -15q64 -14 109.5 -28t97 -39.5t83.5 -57.5t53 -81.5t21 -112.5
q0 -76 -28 -137.5t-73.5 -101t-108.5 -66t-128.5 -37.5t-136.5 -11q-98 0 -179.5 21t-147 64.5t-104 118.5t-42.5 175z" />
    <glyph glyph-name="t" unicode="t" horiz-adv-x="708" 
d="M408 1452v-334h223v-162h-223v-694q0 -63 26 -81.5t113 -18.5h84v-162h-142q-76 0 -122.5 9.5t-81 36t-48.5 74t-14 124.5v712h-188v162h188v334h185z" />
    <glyph glyph-name="u" unicode="u" horiz-adv-x="1267" 
d="M1096 1118v-1118h-172v178h-4q-115 -205 -365 -205q-107 0 -183 29.5t-119 86t-62 128.5t-19 166v735h182v-758q0 -101 62 -162t166 -61q162 0 246.5 96t84.5 254v631h183z" />
    <glyph glyph-name="v" unicode="v" horiz-adv-x="1118" 
d="M1069 1118l-407 -1118h-199l-414 1118h205l313 -932h4l306 932h192z" />
    <glyph glyph-name="w" unicode="w" horiz-adv-x="1740" 
d="M1653 1118l-357 -1118h-194l-228 889h-4l-225 -889h-199l-358 1118h203l254 -915h4l225 915h201l233 -915h4l250 915h191z" />
    <glyph glyph-name="x" unicode="x" horiz-adv-x="1136" 
d="M29 0l417 588l-389 530h236l268 -391l279 391h221l-385 -514l432 -604h-236l-311 463l-311 -463h-221z" />
    <glyph glyph-name="y" unicode="y" horiz-adv-x="1120" 
d="M1083 1118l-485 -1268q-64 -167 -134 -233t-190 -66q-68 0 -129 21v168q8 -2 26 -8t28.5 -8.5t26 -5.5t28.5 -3q54 0 89 25t63 76l75 190l-444 1112h209l325 -915h4l314 915h194z" />
    <glyph glyph-name="z" unicode="z" horiz-adv-x="1091" 
d="M74 0v141l676 815h-633v162h870v-125l-684 -831h715v-162h-944z" />
    <glyph glyph-name="braceleft" unicode="{" horiz-adv-x="772" 
d="M694 1581v-131h-108q-103 0 -103 -184v-398q0 -58 -15 -106.5t-37 -79t-49 -54t-48.5 -34t-38.5 -14.5v-7q23 -3 51 -18t60.5 -45.5t54.5 -90t22 -136.5v-396q0 -186 103 -186h108v-129h-151q-88 0 -161 77.5t-73 205.5v393q0 114 -53.5 184t-124.5 70v147q70 0 124 72
t54 182v393q0 129 73 207t161 78h151z" />
    <glyph glyph-name="bar" unicode="|" horiz-adv-x="512" 
d="M182 -438v2048h148v-2048h-148z" />
    <glyph glyph-name="braceright" unicode="}" horiz-adv-x="772" 
d="M78 -428v129h108q105 0 105 186v396q0 72 21.5 129t54.5 89t60.5 48.5t51.5 23.5v7q-18 2 -39.5 11t-48.5 30.5t-48.5 52t-36.5 81.5t-15 113v394q0 188 -105 188h-108v131h151q90 0 162 -77.5t72 -207.5v-393q0 -113 54 -183.5t124 -70.5v-147q-69 0 -123.5 -72
t-54.5 -182v-393q0 -128 -72.5 -205.5t-161.5 -77.5h-151z" />
    <glyph glyph-name="asciitilde" unicode="~" horiz-adv-x="1392" 
d="M1118 690l78 -108q-27 -36 -41.5 -55t-43 -48.5t-52.5 -44.5t-59.5 -27t-73.5 -12q-54 0 -105 18.5t-116 53.5q-48 27 -76 41t-77.5 28.5t-94.5 14.5q-64 0 -106.5 -45.5t-76.5 -118.5l-77 109q97 186 270 186q85 0 240 -70q19 -8 73.5 -35t87.5 -39t60 -12q29 0 55 12.5
t48.5 36t39.5 46.5t38 55q2 3 3 5t3 4.5t3 4.5z" />
    <glyph glyph-name="exclamdown" unicode="&#xa1;" horiz-adv-x="600" 
d="M199 -428v475l53 674h96l55 -674v-475h-204zM420 1118v-239h-240v239h240z" />
    <glyph glyph-name="cent" unicode="&#xa2;" 
d="M623 137v844q-81 -10 -139.5 -48.5t-91 -99.5t-47.5 -132t-15 -156q0 -77 17 -145.5t51 -126.5t92 -94.5t133 -41.5zM623 -250v223q-154 7 -265.5 83.5t-167 202t-55.5 286.5q0 94 19.5 179.5t59.5 159.5t97 129.5t137 90t175 41.5v205h84v-205q185 -6 301.5 -101.5
t138.5 -283.5h-189q-22 101 -85.5 159.5t-165.5 61.5v-844q112 10 177 83t85 190h184q-9 -83 -42 -159.5t-87.5 -139.5t-137 -100.5t-179.5 -37.5v-223h-84z" />
    <glyph glyph-name="sterling" unicode="&#xa3;" 
d="M147 707v98h125q-102 166 -102 336q0 134 69 235.5t180 153t245 51.5q243 0 378.5 -143t131.5 -416h-185q-5 192 -83 294.5t-232 102.5q-129 0 -219 -82t-90 -202q0 -50 12 -99.5t24 -76.5t39.5 -81t36.5 -73h344v-98h-297q43 -77 43 -162q0 -70 -19 -129t-59.5 -110
t-76 -85t-95.5 -82l5 -6q51 23 75.5 33t68 20.5t83.5 10.5q87 0 205 -33q14 -4 43 -12.5t46 -13.5t43 -9t50 -4q92 0 192 80l93 -142q-116 -100 -316 -100q-75 0 -213 43q-141 45 -227 45q-107 0 -217 -76l-101 144q102 68 170 169.5t68 217.5q0 89 -55 201h-183z" />
    <glyph glyph-name="currency" unicode="&#xa4;" 
d="M94 1200l109 107l121 -121q61 51 148.5 79.5t178.5 28.5q86 0 169 -28.5t141 -77.5l122 121l109 -111l-119 -119q53 -59 82 -143.5t29 -175.5q0 -190 -111 -326l119 -121l-102 -102l-121 127q-60 -58 -144.5 -88.5t-175.5 -30.5q-201 0 -330 117l-118 -127l-107 104
l121 125q-111 140 -111 316q0 94 29.5 178.5t87.5 142.5zM651 1133q-155 0 -259.5 -109.5t-104.5 -269.5q0 -157 105 -265t257 -108q150 0 251 110.5t101 268.5q0 154 -101 263.5t-249 109.5z" />
    <glyph glyph-name="yen" unicode="&#xa5;" 
d="M545 0v377h-305v129h305v90l-39 72h-266v131h198l-397 745h235l379 -764l365 764h225l-385 -745h201v-131h-273l-38 -72v-90h311v-129h-311v-377h-205z" />
    <glyph glyph-name="brokenbar" unicode="&#xa6;" horiz-adv-x="512" 
d="M182 -182v512h148v-512h-148zM330 1354v-512h-148v512h148z" />
    <glyph glyph-name="section" unicode="&#xa7;" horiz-adv-x="1292" 
d="M457 907q-66 -21 -112 -75.5t-46 -120.5q0 -28 8 -54.5t17 -45t32 -41.5t34.5 -34t44.5 -32.5t42.5 -27t46.5 -27.5q187 -99 303 -181q68 28 112 80.5t44 120.5q0 34 -14 66t-34.5 56t-52 49t-57.5 41.5t-59 36.5q-2 1 -3.5 2t-4 2.5t-4.5 2.5q-238 143 -297 182z
M1051 1180h-185q-2 103 -60.5 171t-156.5 68q-91 0 -149 -48t-58 -138q0 -20 6 -40t13.5 -36.5t24.5 -35t30 -32t39 -31.5t42 -28.5t48.5 -29t49.5 -27.5t54.5 -29t53.5 -29q63 -34 106.5 -61t95 -67.5t83 -80.5t52.5 -95t21 -115q0 -104 -63.5 -192.5t-161.5 -125.5
q127 -97 127 -260q0 -156 -113.5 -251t-290.5 -95q-191 0 -306.5 109t-127.5 299h183q2 -109 69.5 -177.5t177.5 -68.5q86 0 151.5 47.5t65.5 132.5q0 28 -9.5 54.5t-21.5 47t-38.5 44.5t-46 39.5t-58.5 39t-61.5 36t-69.5 38t-69 37.5q-65 34 -111.5 62.5t-100.5 71.5
t-87 86.5t-55.5 104t-22.5 127.5q0 100 67.5 186t163.5 113q-100 100 -100 230q0 108 58.5 189.5t148.5 121t194 39.5q182 0 288 -101.5t110 -299.5z" />
    <glyph glyph-name="dieresis" unicode="&#xa8;" horiz-adv-x="514" 
d="M365 1280v225h194v-225h-194zM-45 1280v225h195v-225h-195z" />
    <glyph glyph-name="copyright" unicode="&#xa9;" horiz-adv-x="1857" 
d="M117 776q0 168 65.5 318t176 256.5t260 168.5t313.5 62t313 -62t258.5 -168.5t174.5 -256.5t65 -318q0 -171 -65 -322.5t-174.5 -258.5t-258.5 -169.5t-313 -62.5t-313.5 62.5t-260 169t-176 258.5t-65.5 323zM264 776q0 -194 88 -353.5t241 -250t339 -90.5
q185 0 337 90.5t239 250t87 353.5q0 142 -51.5 269t-139 218.5t-211 145t-261.5 53.5q-139 0 -263 -53.5t-212.5 -145t-140.5 -218.5t-52 -269zM1333 954h-125q-18 94 -88 145.5t-170 51.5q-80 0 -141.5 -31t-98 -84t-55 -119t-18.5 -141q0 -81 18 -149.5t55 -122.5
t98.5 -84.5t141.5 -30.5q118 0 189 73.5t80 192.5h122q-17 -174 -122 -272t-279 -98q-140 0 -239 65.5t-145 172.5t-46 245q0 135 49.5 244t151 176t239.5 67q151 0 255.5 -78.5t127.5 -222.5z" />
    <glyph glyph-name="ordfeminine" unicode="&#xaa;" horiz-adv-x="876" 
d="M717 1346v-347q0 -39 6.5 -54t21.5 -15q34 0 50 4v-94q-46 -19 -95 -19t-77 26.5t-33 74.5q-93 -101 -252 -101q-110 0 -182 49t-72 144q0 186 260 215q153 15 201.5 32t48.5 58q0 34 -14 56t-40 32.5t-52 14t-62 3.5q-173 0 -178 -120h-131q6 117 94 173t223 56
q283 0 283 -188zM367 930q111 0 165 45.5t54 103.5v101q-16 -9 -44 -17.5t-48.5 -12t-64 -10.5t-58.5 -10q-67 -10 -103.5 -34.5t-36.5 -77.5q0 -51 36.5 -69.5t99.5 -18.5z" />
    <glyph glyph-name="guillemotleft" unicode="&#xab;" horiz-adv-x="999" 
d="M877 246l-328 260v190l328 260v-186l-215 -168l215 -170v-186zM451 246l-328 260v190l328 260v-186l-215 -168l215 -170v-186z" />
    <glyph glyph-name="logicalnot" unicode="&#xac;" horiz-adv-x="1392" 
d="M1241 840v-604h-147v456h-942v148h1089z" />
    <glyph glyph-name="registered" unicode="&#xae;" horiz-adv-x="931" 
d="M365 1194h118q97 0 97 76q0 32 -18.5 51.5t-55.5 19.5h-141v-147zM307 965v424h201q60 0 94.5 -30t34.5 -81q0 -40 -18.5 -69.5t-55.5 -39.5q34 -7 47.5 -29t16.5 -59q1 -9 2 -30.5t2 -33t6 -27t14 -25.5h-63q-6 7 -8 23.5t-3 40.5t-4 40q-4 25 -9 39.5t-20.5 26.5
t-41.5 12h-137v-182h-58zM59 1178q0 170 120 286.5t288 116.5q167 0 286 -116.5t119 -286.5q0 -172 -119 -289t-286 -117q-168 0 -288 117.5t-120 288.5zM133 1178q0 -147 96.5 -247t237.5 -100q140 0 236 100t96 247q0 145 -96 244.5t-236 99.5q-141 0 -237.5 -99.5
t-96.5 -244.5z" />
    <glyph glyph-name="macron" unicode="&#xaf;" horiz-adv-x="514" 
d="M-113 1341v119h740v-119h-740z" />
    <glyph glyph-name="degree" unicode="&#xb0;" horiz-adv-x="819" 
d="M98 1223q0 129 91.5 220t220.5 91q130 0 220.5 -91t90.5 -220q0 -131 -90.5 -222.5t-220.5 -91.5q-129 0 -220.5 92t-91.5 222zM207 1223q0 -81 56 -143t147 -62t146.5 62t55.5 143q0 80 -55.5 141t-146.5 61t-147 -61t-56 -141z" />
    <glyph glyph-name="plusminus" unicode="&#xb1;" horiz-adv-x="1392" 
d="M152 586v147h471v359h147v-359h471v-147h-471v-361h-147v361h-471zM152 0v147h1089v-147h-1089z" />
    <glyph glyph-name="twosuperior" unicode="&#xb2;" horiz-adv-x="837" 
d="M223 1200h-147q0 150 91 242t241 92q136 0 227.5 -73.5t91.5 -198.5q0 -47 -15 -89t-35.5 -71.5t-56.5 -60.5t-64 -49.5t-73 -45.5q-17 -10 -60 -34.5t-62.5 -36t-52 -33.5t-48.5 -37.5t-31.5 -37t-21.5 -42.5h508v-119h-656q3 63 19.5 115t38.5 87t60.5 69t70 54.5
t82.5 49.5q58 34 91.5 55.5t68 49t51.5 52t28 56.5t11 70q0 66 -52 107.5t-127 41.5q-92 0 -135 -60t-43 -153z" />
    <glyph glyph-name="threesuperior" unicode="&#xb3;" horiz-adv-x="837" 
d="M313 1032v107h54q77 0 127.5 34.5t50.5 106.5q0 63 -46.5 98t-119.5 35q-84 0 -128 -51t-44 -133h-148q8 140 92.5 222.5t227.5 82.5q139 0 226 -66t87 -188q0 -59 -42 -108.5t-105 -75.5v-4q92 -17 140 -76.5t48 -145.5q0 -68 -29 -122.5t-78.5 -88.5t-111.5 -51.5
t-131 -17.5q-151 0 -248.5 80t-97.5 225h147q1 -89 53 -137.5t146 -48.5q85 0 144 42.5t59 112.5q0 85 -58 126.5t-143 41.5h-72z" />
    <glyph glyph-name="acute" unicode="&#xb4;" horiz-adv-x="514" 
d="M123 1272l186 309h236l-285 -309h-137z" />
    <glyph glyph-name="mu" unicode="&#xb5;" horiz-adv-x="1267" 
d="M1096 1118v-1118h-172v178h-4q-115 -205 -365 -205q-144 0 -197 82h-4v-483h-182v1546h182v-758q0 -101 62 -162t166 -61q162 0 246.5 96t84.5 254v631h183z" />
    <glyph glyph-name="paragraph" unicode="&#xb6;" horiz-adv-x="1318" 
d="M1126 1544v-1880h-147v1761h-264v-1761h-148v1032q-194 0 -322 116.5t-128 285.5q0 211 131.5 328.5t359.5 117.5h518z" />
    <glyph glyph-name="periodcentered" unicode="&#xb7;" horiz-adv-x="643" 
d="M182 672q0 58 40.5 98.5t99.5 40.5q58 0 98.5 -40.5t40.5 -98.5q0 -59 -40.5 -99.5t-98.5 -40.5t-99 41t-41 99z" />
    <glyph glyph-name="cedilla" unicode="&#xb8;" horiz-adv-x="514" 
d="M29 -414l39 97q72 -29 133 -29q31 0 60 6t51 22t22 39q0 29 -29.5 48.5t-71.5 19.5q-31 0 -90 -18l-37 61l134 168h90l-90 -115l4 -4q22 15 71 15q73 0 127 -41.5t54 -116.5q0 -51 -25 -90t-65.5 -60.5t-85.5 -32t-93 -10.5q-80 0 -198 41z" />
    <glyph glyph-name="onesuperior" unicode="&#xb9;" horiz-adv-x="837" 
d="M567 1534v-928h-147v666h-248v108q55 1 99 8t84.5 23.5t67 47.5t36.5 75h108z" />
    <glyph glyph-name="ordmasculine" unicode="&#xba;" horiz-adv-x="890" 
d="M446 1534q172 0 266.5 -100.5t94.5 -259.5q0 -160 -93 -256.5t-265 -96.5q-169 0 -267 98t-98 255t95.5 258.5t266.5 101.5zM446 1425q-94 0 -154.5 -63.5t-60.5 -187.5q0 -106 54 -175t164 -69q108 0 159 67.5t51 173.5q0 61 -13.5 107.5t-34.5 73.5t-50.5 44t-57 23
t-57.5 6z" />
    <glyph glyph-name="guillemotright" unicode="&#xbb;" horiz-adv-x="999" 
d="M123 956l328 -260v-190l-328 -260v186l215 170l-215 168v186zM549 956l328 -260v-190l-328 -260v186l215 170l-215 168v186z" />
    <glyph glyph-name="onequarter" unicode="&#xbc;" horiz-adv-x="1937" 
d="M1630 928v-602h131v-119h-131v-207h-133v207h-430v127l453 594h110zM1493 743l-319 -417h323v417h-4zM391 -61l942 1628h137l-940 -1628h-139zM541 1534v-928h-148v666h-248v108q256 0 287 154h109z" />
    <glyph glyph-name="onehalf" unicode="&#xbd;" horiz-adv-x="1937" 
d="M360 -61l940 1628h138l-940 -1628h-138zM541 1534v-928h-148v666h-248v108q256 0 287 154h109zM1300 594h-147q0 150 90.5 242t241.5 92q135 0 227 -74t92 -199q0 -47 -14.5 -88.5t-35 -70.5t-57 -59.5t-65 -49.5t-73.5 -45q-19 -12 -60 -35.5t-62 -36t-52.5 -34
t-48 -37.5t-32.5 -37.5t-22 -42.5h508v-119h-653q4 79 25 138.5t63 104t80 71t102 63.5q141 80 195.5 135.5t54.5 144.5q0 67 -52 109.5t-128 42.5q-91 0 -134 -61t-43 -154z" />
    <glyph glyph-name="threequarters" unicode="&#xbe;" horiz-adv-x="1937" 
d="M1667 928v-602h131v-119h-131v-207h-133v207h-430v127l452 594h111zM1532 735l-320 -418h324v418h-4zM532 -61l941 1628h139l-940 -1628h-140zM451 1032v107h51q79 0 129.5 34.5t50.5 106.5q0 63 -46.5 98t-119.5 35q-84 0 -129 -51t-45 -133h-147q9 140 93.5 222.5
t227.5 82.5q138 0 225.5 -66t87.5 -188q0 -59 -42 -108.5t-105 -75.5v-4q91 -17 139.5 -76.5t48.5 -145.5q0 -133 -103 -206.5t-247 -73.5q-151 0 -248.5 80t-97.5 225h148q2 -90 52.5 -138t145.5 -48q83 0 143 43t60 112q0 85 -58.5 126.5t-142.5 41.5h-71z" />
    <glyph glyph-name="questiondown" unicode="&#xbf;" horiz-adv-x="1218" 
d="M907 66h185q3 -227 -129.5 -374t-354.5 -147q-204 0 -330 115t-126 317q0 64 14.5 118.5t43.5 100.5t57.5 78t70.5 72q35 34 47 45.5t41 42.5t40.5 51t28.5 51t23 62.5t6 67.5v67h185v-84q0 -26 -3.5 -51.5t-8 -45.5t-15 -43.5t-17 -38t-22.5 -36.5t-23 -32t-26.5 -32
t-25.5 -28t-28 -28.5t-26 -26.5q-78 -78 -102 -110q-73 -97 -66 -216q8 -119 77.5 -186.5t184.5 -67.5q147 0 224 100.5t75 258.5zM733 1118v-239h-239v239h239z" />
    <glyph glyph-name="Agrave" unicode="&#xc0;" horiz-adv-x="1503" 
d="M35 0l602 1544h227l604 -1544h-227l-170 465h-651l-174 -465h-211zM745 1358l-262 -721h525l-258 721h-5zM748 1657l-283 309h235l187 -309h-139z" />
    <glyph glyph-name="Aacute" unicode="&#xc1;" horiz-adv-x="1503" 
d="M35 0l602 1544h227l604 -1544h-227l-170 465h-651l-174 -465h-211zM745 1358l-262 -721h525l-258 721h-5zM618 1657l187 309h235l-284 -309h-138z" />
    <glyph glyph-name="Acircumflex" unicode="&#xc2;" horiz-adv-x="1503" 
d="M35 0l602 1544h227l604 -1544h-227l-170 465h-651l-174 -465h-211zM745 1358l-262 -721h525l-258 721h-5zM428 1657l223 309h201l225 -309h-182l-150 207l-151 -207h-166z" />
    <glyph glyph-name="Atilde" unicode="&#xc3;" horiz-adv-x="1503" 
d="M35 0l602 1544h227l604 -1544h-227l-170 465h-651l-174 -465h-211zM745 1358l-262 -721h525l-258 721h-5zM1012 1923h112q-15 -94 -69 -174q-61 -68 -170 -68q-44 0 -144 45q-8 3 -30 11t-33 11.5t-28 9t-30 7.5t-24 2q-38 0 -71.5 -26.5t-30.5 -65.5h-113
q30 112 81.5 175t145.5 63q65 0 160 -43q4 -2 27.5 -11.5t31.5 -12.5t25.5 -9t30.5 -8t26 -2q39 0 64.5 28.5t38.5 67.5z" />
    <glyph glyph-name="Adieresis" unicode="&#xc4;" horiz-adv-x="1503" 
d="M35 0l602 1544h227l604 -1544h-227l-170 465h-651l-174 -465h-211zM745 1358l-262 -721h525l-258 721h-5zM860 1665v225h195v-225h-195zM451 1665v225h194v-225h-194z" />
    <glyph glyph-name="Aring" unicode="&#xc5;" horiz-adv-x="1503" 
d="M35 0l602 1544h227l604 -1544h-227l-170 465h-651l-174 -465h-211zM745 1358l-262 -721h525l-258 721h-5zM604 1817q0 -61 43 -104.5t105 -43.5q63 0 106 43t43 105t-43 104.5t-106 42.5q-62 0 -105 -43t-43 -104zM508 1817q0 100 72 171.5t172 71.5q102 0 173.5 -71.5
t71.5 -171.5q0 -101 -71.5 -172.5t-173.5 -71.5q-100 0 -172 71.5t-72 172.5z" />
    <glyph glyph-name="AE" unicode="&#xc6;" horiz-adv-x="2150" 
d="M61 0l781 1544h1157v-174h-760v-489h713v-174h-713v-535h772v-172h-967v451h-532l-219 -451h-232zM1044 1370h-88l-364 -747h452v747z" />
    <glyph glyph-name="Ccedilla" unicode="&#xc7;" horiz-adv-x="1650" 
d="M713 -229l-37 61l106 135q-128 9 -234.5 54t-182.5 117.5t-128.5 170.5t-78 213.5t-25.5 245.5q0 134 30 255.5t91.5 223.5t148 176.5t205.5 116t258 41.5q251 0 426 -131.5t211 -370.5h-207q-31 158 -148.5 243t-283.5 85q-107 0 -195 -34t-148 -92.5t-101 -138.5
t-59.5 -170.5t-18.5 -189.5q0 -136 30.5 -250t92.5 -204t164.5 -140.5t236.5 -50.5q197 0 314 123t133 322h205q-29 -287 -198 -450t-450 -167l-61 -80l4 -4q23 15 72 15q73 0 126.5 -41.5t53.5 -116.5q0 -51 -24.5 -90t-65 -60.5t-85.5 -32t-93 -10.5q-81 0 -199 41l39 97
q73 -29 133 -29q31 0 60 6t51 22t22 39q0 29 -29 48.5t-71 19.5q-31 0 -90 -18z" />
    <glyph glyph-name="Egrave" unicode="&#xc8;" horiz-adv-x="1398" 
d="M205 0v1544h1067v-174h-860v-489h800v-174h-800v-535h866v-172h-1073zM694 1657l-282 309h235l187 -309h-140z" />
    <glyph glyph-name="Eacute" unicode="&#xc9;" horiz-adv-x="1398" 
d="M205 0v1544h1067v-174h-860v-489h800v-174h-800v-535h866v-172h-1073zM565 1657l187 309h235l-285 -309h-137z" />
    <glyph glyph-name="Ecircumflex" unicode="&#xca;" horiz-adv-x="1398" 
d="M205 0v1544h1067v-174h-860v-489h800v-174h-800v-535h866v-172h-1073zM375 1657l223 309h201l225 -309h-182l-150 207l-151 -207h-166z" />
    <glyph glyph-name="Edieresis" unicode="&#xcb;" horiz-adv-x="1398" 
d="M205 0v1544h1067v-174h-860v-489h800v-174h-800v-535h866v-172h-1073zM807 1665v225h194v-225h-194zM397 1665v225h195v-225h-195z" />
    <glyph glyph-name="Igrave" unicode="&#xcc;" horiz-adv-x="614" 
d="M205 0v1544h205v-1544h-205zM303 1657l-283 309h236l186 -309h-139z" />
    <glyph glyph-name="Iacute" unicode="&#xcd;" horiz-adv-x="614" 
d="M205 0v1544h205v-1544h-205zM174 1657l186 309h236l-285 -309h-137z" />
    <glyph glyph-name="Icircumflex" unicode="&#xce;" horiz-adv-x="614" 
d="M205 0v1544h205v-1544h-205zM-16 1657l223 309h201l225 -309h-182l-150 207l-151 -207h-166z" />
    <glyph glyph-name="Idieresis" unicode="&#xcf;" horiz-adv-x="614" 
d="M205 0v1544h205v-1544h-205zM416 1665v225h194v-225h-194zM6 1665v225h195v-225h-195z" />
    <glyph glyph-name="Eth" unicode="&#xd0;" horiz-adv-x="1609" 
d="M205 0v733h-152v148h152v663h530q361 0 551.5 -183.5t190.5 -551.5q0 -809 -742 -809h-530zM412 1370v-489h462v-148h-462v-561h340q38 0 74 3.5t90.5 18t100 38.5t94.5 70t83 108t56 157.5t22 212.5q0 289 -120.5 439.5t-393.5 150.5h-346z" />
    <glyph glyph-name="Ntilde" unicode="&#xd1;" horiz-adv-x="1642" 
d="M205 0v1544h221l813 -1251h4v1251h195v-1544h-226l-806 1239h-5v-1239h-196zM1081 1923h113q-15 -92 -70 -174q-61 -68 -170 -68q-43 0 -143 45q-8 3 -30 11t-33 11.5t-28 9t-30 7.5t-24 2q-39 0 -72.5 -26.5t-30.5 -65.5h-112q30 112 81.5 175t145.5 63q65 0 160 -43
q4 -2 27.5 -11.5t31.5 -12.5t25.5 -9t30.5 -8t26 -2q39 0 64 28.5t38 67.5z" />
    <glyph glyph-name="Ograve" unicode="&#xd2;" horiz-adv-x="1744" 
d="M133 772q0 127 29.5 245.5t90.5 221t147 178.5t207.5 120t264.5 44q144 0 265.5 -44t208 -120t147.5 -179t90 -221t29 -245t-29 -245t-90 -221t-147.5 -179t-208 -120t-265.5 -44q-143 0 -264.5 44t-207.5 120t-147 178.5t-90.5 221t-29.5 245.5zM338 772
q0 -96 19 -185.5t61 -172t103 -143.5t151.5 -97.5t199.5 -36.5t200 36.5t152 97.5t103 143.5t61 172t19 185.5t-19 185.5t-61 172t-103 143.5t-152 97.5t-200 36.5t-199.5 -36.5t-151.5 -97.5t-103 -143.5t-61 -172t-19 -185.5zM868 1657l-282 309h235l187 -309h-140z" />
    <glyph glyph-name="Oacute" unicode="&#xd3;" horiz-adv-x="1744" 
d="M133 772q0 127 29.5 245.5t90.5 221t147 178.5t207.5 120t264.5 44q144 0 265.5 -44t208 -120t147.5 -179t90 -221t29 -245t-29 -245t-90 -221t-147.5 -179t-208 -120t-265.5 -44q-143 0 -264.5 44t-207.5 120t-147 178.5t-90.5 221t-29.5 245.5zM338 772
q0 -96 19 -185.5t61 -172t103 -143.5t151.5 -97.5t199.5 -36.5t200 36.5t152 97.5t103 143.5t61 172t19 185.5t-19 185.5t-61 172t-103 143.5t-152 97.5t-200 36.5t-199.5 -36.5t-151.5 -97.5t-103 -143.5t-61 -172t-19 -185.5zM739 1657l187 309h235l-284 -309h-138z" />
    <glyph glyph-name="Ocircumflex" unicode="&#xd4;" horiz-adv-x="1744" 
d="M133 772q0 127 29.5 245.5t90.5 221t147 178.5t207.5 120t264.5 44q144 0 265.5 -44t208 -120t147.5 -179t90 -221t29 -245t-29 -245t-90 -221t-147.5 -179t-208 -120t-265.5 -44q-143 0 -264.5 44t-207.5 120t-147 178.5t-90.5 221t-29.5 245.5zM338 772
q0 -96 19 -185.5t61 -172t103 -143.5t151.5 -97.5t199.5 -36.5t200 36.5t152 97.5t103 143.5t61 172t19 185.5t-19 185.5t-61 172t-103 143.5t-152 97.5t-200 36.5t-199.5 -36.5t-151.5 -97.5t-103 -143.5t-61 -172t-19 -185.5zM549 1657l223 309h201l225 -309h-182
l-150 207l-151 -207h-166z" />
    <glyph glyph-name="Otilde" unicode="&#xd5;" horiz-adv-x="1744" 
d="M133 772q0 127 29.5 245.5t90.5 221t147 178.5t207.5 120t264.5 44q144 0 265.5 -44t208 -120t147.5 -179t90 -221t29 -245t-29 -245t-90 -221t-147.5 -179t-208 -120t-265.5 -44q-143 0 -264.5 44t-207.5 120t-147 178.5t-90.5 221t-29.5 245.5zM338 772
q0 -96 19 -185.5t61 -172t103 -143.5t151.5 -97.5t199.5 -36.5t200 36.5t152 97.5t103 143.5t61 172t19 185.5t-19 185.5t-61 172t-103 143.5t-152 97.5t-200 36.5t-199.5 -36.5t-151.5 -97.5t-103 -143.5t-61 -172t-19 -185.5zM1133 1923h112q-15 -94 -69 -174
q-61 -68 -170 -68q-44 0 -144 45q-8 3 -30 11t-33 11.5t-28 9t-30 7.5t-24 2q-39 0 -72.5 -26.5t-30.5 -65.5h-112q30 112 81.5 175t145.5 63q65 0 160 -43q4 -2 27.5 -11.5t31.5 -12.5t25.5 -9t30.5 -8t26 -2q39 0 64.5 28.5t38.5 67.5z" />
    <glyph glyph-name="Odieresis" unicode="&#xd6;" horiz-adv-x="1744" 
d="M133 772q0 127 29.5 245.5t90.5 221t147 178.5t207.5 120t264.5 44q144 0 265.5 -44t208 -120t147.5 -179t90 -221t29 -245t-29 -245t-90 -221t-147.5 -179t-208 -120t-265.5 -44q-143 0 -264.5 44t-207.5 120t-147 178.5t-90.5 221t-29.5 245.5zM338 772
q0 -96 19 -185.5t61 -172t103 -143.5t151.5 -97.5t199.5 -36.5t200 36.5t152 97.5t103 143.5t61 172t19 185.5t-19 185.5t-61 172t-103 143.5t-152 97.5t-200 36.5t-199.5 -36.5t-151.5 -97.5t-103 -143.5t-61 -172t-19 -185.5zM981 1665v225h195v-225h-195zM571 1665v225
h195v-225h-195z" />
    <glyph glyph-name="multiply" unicode="&#xd7;" horiz-adv-x="1392" 
d="M305 51l-104 105l393 393l-391 389l104 104l391 -389l387 389l105 -104l-389 -389l391 -393l-105 -105l-389 393z" />
    <glyph glyph-name="Oslash" unicode="&#xd8;" horiz-adv-x="1744" 
d="M446 367l799 880q-137 160 -373 160q-109 0 -199.5 -36.5t-151.5 -97.5t-103 -143.5t-61 -172t-19 -185.5q0 -237 108 -405zM1303 1169l-797 -880q136 -152 366 -152q109 0 200 36.5t152 97.5t103 143.5t61 172t19 185.5q0 234 -104 397zM1546 1579l66 -66l-174 -194
q174 -223 174 -547q0 -127 -29 -245t-90 -221t-147.5 -179t-208 -120t-265.5 -44q-301 0 -495 187l-174 -193l-70 66l180 198q-88 107 -134 251t-46 300q0 127 29.5 245.5t90.5 221t147 178.5t207.5 120t264.5 44q306 0 502 -190z" />
    <glyph glyph-name="Ugrave" unicode="&#xd9;" horiz-adv-x="1652" 
d="M1448 1544v-987q0 -289 -158.5 -441.5t-449.5 -152.5q-306 0 -470.5 147t-164.5 447v987h207v-987q0 -203 111.5 -311.5t316.5 -108.5q195 0 299 108t104 312v987h205zM821 1657l-282 309h235l187 -309h-140z" />
    <glyph glyph-name="Uacute" unicode="&#xda;" horiz-adv-x="1652" 
d="M1448 1544v-987q0 -289 -158.5 -441.5t-449.5 -152.5q-306 0 -470.5 147t-164.5 447v987h207v-987q0 -203 111.5 -311.5t316.5 -108.5q195 0 299 108t104 312v987h205zM692 1657l187 309h235l-285 -309h-137z" />
    <glyph glyph-name="Ucircumflex" unicode="&#xdb;" horiz-adv-x="1652" 
d="M1448 1544v-987q0 -289 -158.5 -441.5t-449.5 -152.5q-306 0 -470.5 147t-164.5 447v987h207v-987q0 -203 111.5 -311.5t316.5 -108.5q195 0 299 108t104 312v987h205zM502 1657l223 309h201l225 -309h-182l-150 207l-151 -207h-166z" />
    <glyph glyph-name="Udieresis" unicode="&#xdc;" horiz-adv-x="1652" 
d="M1448 1544v-987q0 -289 -158.5 -441.5t-449.5 -152.5q-306 0 -470.5 147t-164.5 447v987h207v-987q0 -203 111.5 -311.5t316.5 -108.5q195 0 299 108t104 312v987h205zM934 1665v225h194v-225h-194zM524 1665v225h195v-225h-195z" />
    <glyph glyph-name="Yacute" unicode="&#xdd;" horiz-adv-x="1392" 
d="M1393 1544l-590 -913v-631h-205v631l-598 913h244l463 -735l452 735h234zM563 1657l187 309h235l-285 -309h-137z" />
    <glyph glyph-name="Thorn" unicode="&#xde;" horiz-adv-x="1464" 
d="M412 0h-207v1544h207v-248h471q229 0 351 -119.5t122 -336.5t-122.5 -336.5t-350.5 -118.5h-471v-385zM412 1124v-567h401q338 -3 338 283q0 284 -338 284h-401z" />
    <glyph glyph-name="germandbls" unicode="&#xdf;" horiz-adv-x="1259" 
d="M172 0v1149q0 193 117.5 312.5t310.5 119.5q81 0 159 -24.5t143 -70.5t105 -120t40 -164q0 -261 -226 -336v-4q94 -11 162.5 -68.5t100.5 -140t32 -178.5q0 -222 -139 -362t-361 -140q-39 0 -92 11v159q23 -6 74 -6q147 0 235.5 87.5t88.5 228.5q0 83 -19 141.5
t-50.5 93.5t-84.5 55t-109 26.5t-135 6.5v148q68 -4 125 7t103.5 38.5t73 79.5t26.5 125q0 103 -69.5 174t-170.5 71q-125 0 -191.5 -67t-66.5 -236v-1116h-182z" />
    <glyph glyph-name="agrave" unicode="&#xe0;" horiz-adv-x="1220" 
d="M862 389v189q-25 -18 -67 -31t-76.5 -18.5t-97 -13.5t-91.5 -13q-50 -10 -87 -23t-70 -35t-50.5 -58t-17.5 -85q0 -85 61.5 -124.5t155.5 -39.5q86 0 154.5 24.5t107 63.5t58.5 81t20 83zM1161 147v-143q-57 -31 -131 -31t-115 43t-41 131q-149 -174 -393 -174
q-79 0 -144.5 18.5t-117 55.5t-80 98t-28.5 142q0 53 11.5 97t29.5 75.5t48.5 57.5t59.5 43t71.5 31t76.5 22.5t81 17.5q36 7 84 14t79.5 11.5t68.5 12t60 17t43.5 24.5t30 36.5t9.5 50.5q0 46 -15 80.5t-38 53.5t-57.5 31t-66.5 15.5t-71 3.5q-128 0 -200 -47.5t-78 -163.5
h-184q4 100 43 174.5t105 117t147 63t178 20.5q67 0 122.5 -6.5t112.5 -27t96 -53t64 -89t25 -131.5v-576q0 -33 0.5 -47t3.5 -33t9 -26.5t17 -13t29 -5.5q26 0 55 10zM606 1272l-282 309h235l186 -309h-139z" />
    <glyph glyph-name="aacute" unicode="&#xe1;" horiz-adv-x="1220" 
d="M862 389v189q-25 -18 -67 -31t-76.5 -18.5t-97 -13.5t-91.5 -13q-50 -10 -87 -23t-70 -35t-50.5 -58t-17.5 -85q0 -85 61.5 -124.5t155.5 -39.5q86 0 154.5 24.5t107 63.5t58.5 81t20 83zM1161 147v-143q-57 -31 -131 -31t-115 43t-41 131q-149 -174 -393 -174
q-79 0 -144.5 18.5t-117 55.5t-80 98t-28.5 142q0 53 11.5 97t29.5 75.5t48.5 57.5t59.5 43t71.5 31t76.5 22.5t81 17.5q36 7 84 14t79.5 11.5t68.5 12t60 17t43.5 24.5t30 36.5t9.5 50.5q0 46 -15 80.5t-38 53.5t-57.5 31t-66.5 15.5t-71 3.5q-128 0 -200 -47.5t-78 -163.5
h-184q4 100 43 174.5t105 117t147 63t178 20.5q67 0 122.5 -6.5t112.5 -27t96 -53t64 -89t25 -131.5v-576q0 -33 0.5 -47t3.5 -33t9 -26.5t17 -13t29 -5.5q26 0 55 10zM477 1272l187 309h235l-285 -309h-137z" />
    <glyph glyph-name="acircumflex" unicode="&#xe2;" horiz-adv-x="1220" 
d="M862 389v189q-25 -18 -67 -31t-76.5 -18.5t-97 -13.5t-91.5 -13q-50 -10 -87 -23t-70 -35t-50.5 -58t-17.5 -85q0 -85 61.5 -124.5t155.5 -39.5q86 0 154.5 24.5t107 63.5t58.5 81t20 83zM1161 147v-143q-57 -31 -131 -31t-115 43t-41 131q-149 -174 -393 -174
q-79 0 -144.5 18.5t-117 55.5t-80 98t-28.5 142q0 53 11.5 97t29.5 75.5t48.5 57.5t59.5 43t71.5 31t76.5 22.5t81 17.5q36 7 84 14t79.5 11.5t68.5 12t60 17t43.5 24.5t30 36.5t9.5 50.5q0 46 -15 80.5t-38 53.5t-57.5 31t-66.5 15.5t-71 3.5q-128 0 -200 -47.5t-78 -163.5
h-184q4 100 43 174.5t105 117t147 63t178 20.5q67 0 122.5 -6.5t112.5 -27t96 -53t64 -89t25 -131.5v-576q0 -33 0.5 -47t3.5 -33t9 -26.5t17 -13t29 -5.5q26 0 55 10zM287 1272l223 309h201l225 -309h-182l-150 207l-151 -207h-166z" />
    <glyph glyph-name="atilde" unicode="&#xe3;" horiz-adv-x="1220" 
d="M862 389v189q-25 -18 -67 -31t-76.5 -18.5t-97 -13.5t-91.5 -13q-50 -10 -87 -23t-70 -35t-50.5 -58t-17.5 -85q0 -85 61.5 -124.5t155.5 -39.5q86 0 154.5 24.5t107 63.5t58.5 81t20 83zM1161 147v-143q-57 -31 -131 -31t-115 43t-41 131q-149 -174 -393 -174
q-79 0 -144.5 18.5t-117 55.5t-80 98t-28.5 142q0 53 11.5 97t29.5 75.5t48.5 57.5t59.5 43t71.5 31t76.5 22.5t81 17.5q36 7 84 14t79.5 11.5t68.5 12t60 17t43.5 24.5t30 36.5t9.5 50.5q0 46 -15 80.5t-38 53.5t-57.5 31t-66.5 15.5t-71 3.5q-128 0 -200 -47.5t-78 -163.5
h-184q4 100 43 174.5t105 117t147 63t178 20.5q67 0 122.5 -6.5t112.5 -27t96 -53t64 -89t25 -131.5v-576q0 -33 0.5 -47t3.5 -33t9 -26.5t17 -13t29 -5.5q26 0 55 10zM870 1538h113q-15 -92 -70 -174q-61 -68 -170 -68q-43 0 -143 45q-8 3 -30 11t-33 11.5t-28 9t-30 7.5
t-24 2q-39 0 -72.5 -26.5t-30.5 -65.5h-112q30 112 81.5 175t145.5 63q65 0 160 -43q4 -2 27.5 -11.5t31.5 -12.5t25.5 -9t30.5 -8t26 -2q39 0 64 28.5t38 67.5z" />
    <glyph glyph-name="adieresis" unicode="&#xe4;" horiz-adv-x="1220" 
d="M862 389v189q-25 -18 -67 -31t-76.5 -18.5t-97 -13.5t-91.5 -13q-50 -10 -87 -23t-70 -35t-50.5 -58t-17.5 -85q0 -85 61.5 -124.5t155.5 -39.5q86 0 154.5 24.5t107 63.5t58.5 81t20 83zM1161 147v-143q-57 -31 -131 -31t-115 43t-41 131q-149 -174 -393 -174
q-79 0 -144.5 18.5t-117 55.5t-80 98t-28.5 142q0 53 11.5 97t29.5 75.5t48.5 57.5t59.5 43t71.5 31t76.5 22.5t81 17.5q36 7 84 14t79.5 11.5t68.5 12t60 17t43.5 24.5t30 36.5t9.5 50.5q0 46 -15 80.5t-38 53.5t-57.5 31t-66.5 15.5t-71 3.5q-128 0 -200 -47.5t-78 -163.5
h-184q4 100 43 174.5t105 117t147 63t178 20.5q67 0 122.5 -6.5t112.5 -27t96 -53t64 -89t25 -131.5v-576q0 -33 0.5 -47t3.5 -33t9 -26.5t17 -13t29 -5.5q26 0 55 10zM719 1280v225h194v-225h-194zM309 1280v225h195v-225h-195z" />
    <glyph glyph-name="aring" unicode="&#xe5;" horiz-adv-x="1220" 
d="M862 389v189q-25 -18 -67 -31t-76.5 -18.5t-97 -13.5t-91.5 -13q-50 -10 -87 -23t-70 -35t-50.5 -58t-17.5 -85q0 -85 61.5 -124.5t155.5 -39.5q86 0 154.5 24.5t107 63.5t58.5 81t20 83zM1161 147v-143q-57 -31 -131 -31t-115 43t-41 131q-149 -174 -393 -174
q-79 0 -144.5 18.5t-117 55.5t-80 98t-28.5 142q0 53 11.5 97t29.5 75.5t48.5 57.5t59.5 43t71.5 31t76.5 22.5t81 17.5q36 7 84 14t79.5 11.5t68.5 12t60 17t43.5 24.5t30 36.5t9.5 50.5q0 46 -15 80.5t-38 53.5t-57.5 31t-66.5 15.5t-71 3.5q-128 0 -200 -47.5t-78 -163.5
h-184q4 100 43 174.5t105 117t147 63t178 20.5q67 0 122.5 -6.5t112.5 -27t96 -53t64 -89t25 -131.5v-576q0 -33 0.5 -47t3.5 -33t9 -26.5t17 -13t29 -5.5q26 0 55 10zM463 1432q0 -62 43 -105t104 -43q63 0 106.5 43t43.5 105t-43.5 104.5t-106.5 42.5q-62 0 -104.5 -42.5
t-42.5 -104.5zM367 1432q0 100 71.5 171.5t171.5 71.5q102 0 174 -71.5t72 -171.5q0 -101 -71.5 -172.5t-174.5 -71.5q-100 0 -171.5 71.5t-71.5 172.5z" />
    <glyph glyph-name="ae" unicode="&#xe6;" horiz-adv-x="1972" 
d="M1667 666q-3 137 -85 226t-224 89q-145 0 -230.5 -88.5t-85.5 -226.5h625zM305 301q0 -85 61.5 -124.5t155.5 -39.5q86 0 155.5 24.5t110 63.5t61.5 81.5t21 82.5v189q-26 -16 -70 -29t-81.5 -19t-99 -14.5t-89.5 -13.5q-50 -10 -87 -23t-70 -35t-50.5 -58t-17.5 -85z
M1862 504h-820q0 -102 35.5 -183.5t113.5 -132.5t187 -51q105 0 181.5 55t101.5 160h188q-41 -181 -169 -280t-316 -99q-305 0 -403 220q-61 -111 -185 -165.5t-287 -54.5q-170 0 -274 78t-104 236q0 53 11.5 97t29.5 75.5t48.5 57.5t59.5 43t71.5 31t76.5 22.5t81 17.5
q45 9 105 19.5t89.5 15.5t67.5 14.5t55 18.5t34.5 24.5t23.5 36t6 49.5q0 44 -15 76t-38.5 50t-58.5 29t-67.5 14t-74.5 3q-128 0 -200 -47.5t-78 -163.5h-184q4 100 43 174.5t105 117t147 63t178 20.5q295 0 374 -164q54 83 150.5 123.5t206.5 40.5q114 0 201.5 -33.5
t144 -91t92.5 -141t51 -175t15 -200.5z" />
    <glyph glyph-name="ccedilla" unicode="&#xe7;" horiz-adv-x="1220" 
d="M938 410h188q-30 -197 -145.5 -310.5t-304.5 -122.5l-72 -92l4 -4q22 15 72 15q73 0 126.5 -41.5t53.5 -116.5q0 -51 -24.5 -90t-65 -60.5t-85.5 -32t-93 -10.5q-81 0 -199 41l39 97q72 -29 133 -29q31 0 60 6t51 22t22 39q0 29 -29 48.5t-71 19.5q-31 0 -90 -18l-37 61
l115 145q-228 15 -351.5 169.5t-123.5 398.5q0 128 33 236t97 190t166 128t232 46q96 0 178 -23.5t146.5 -69.5t105.5 -120.5t51 -171.5h-190q-22 105 -93 163t-184 58q-96 0 -166 -35.5t-108.5 -98.5t-56 -137.5t-17.5 -164.5q0 -80 18.5 -151t56.5 -129.5t102.5 -93
t148.5 -34.5q132 0 210.5 72t96.5 201z" />
    <glyph glyph-name="egrave" unicode="&#xe8;" horiz-adv-x="1253" 
d="M942 354h182q-36 -183 -162 -282t-315 -99q-131 0 -232.5 44t-166 123.5t-99 186t-38.5 236.5q0 251 149 416.5t377 165.5q95 0 175 -28.5t134.5 -78t95 -112.5t63 -136t32 -144.5t6.5 -141.5h-838q-2 -75 18 -140t61.5 -116.5t110.5 -81t158 -29.5q116 0 191 55t98 162z
M305 666h643q-8 134 -98 224.5t-225 90.5q-140 0 -225.5 -90t-94.5 -225zM623 1272l-283 309h235l187 -309h-139z" />
    <glyph glyph-name="eacute" unicode="&#xe9;" horiz-adv-x="1253" 
d="M942 354h182q-36 -183 -162 -282t-315 -99q-131 0 -232.5 44t-166 123.5t-99 186t-38.5 236.5q0 251 149 416.5t377 165.5q95 0 175 -28.5t134.5 -78t95 -112.5t63 -136t32 -144.5t6.5 -141.5h-838q-2 -75 18 -140t61.5 -116.5t110.5 -81t158 -29.5q116 0 191 55t98 162z
M305 666h643q-8 134 -98 224.5t-225 90.5q-140 0 -225.5 -90t-94.5 -225zM494 1272l186 309h235l-284 -309h-137z" />
    <glyph glyph-name="ecircumflex" unicode="&#xea;" horiz-adv-x="1253" 
d="M942 354h182q-36 -183 -162 -282t-315 -99q-131 0 -232.5 44t-166 123.5t-99 186t-38.5 236.5q0 251 149 416.5t377 165.5q95 0 175 -28.5t134.5 -78t95 -112.5t63 -136t32 -144.5t6.5 -141.5h-838q-2 -75 18 -140t61.5 -116.5t110.5 -81t158 -29.5q116 0 191 55t98 162z
M305 666h643q-8 134 -98 224.5t-225 90.5q-140 0 -225.5 -90t-94.5 -225zM303 1272l223 309h201l225 -309h-182l-149 207l-152 -207h-166z" />
    <glyph glyph-name="edieresis" unicode="&#xeb;" horiz-adv-x="1253" 
d="M942 354h182q-36 -183 -162 -282t-315 -99q-131 0 -232.5 44t-166 123.5t-99 186t-38.5 236.5q0 251 149 416.5t377 165.5q95 0 175 -28.5t134.5 -78t95 -112.5t63 -136t32 -144.5t6.5 -141.5h-838q-2 -75 18 -140t61.5 -116.5t110.5 -81t158 -29.5q116 0 191 55t98 162z
M305 666h643q-8 134 -98 224.5t-225 90.5q-140 0 -225.5 -90t-94.5 -225zM735 1280v225h195v-225h-195zM326 1280v225h194v-225h-194z" />
    <glyph glyph-name="igrave" unicode="&#xec;" horiz-adv-x="528" 
d="M172 0v1118h184v-1118h-184zM260 1272l-283 309h236l186 -309h-139z" />
    <glyph glyph-name="iacute" unicode="&#xed;" horiz-adv-x="528" 
d="M172 0v1118h184v-1118h-184zM131 1272l186 309h236l-285 -309h-137z" />
    <glyph glyph-name="icircumflex" unicode="&#xee;" horiz-adv-x="528" 
d="M172 0v1118h184v-1118h-184zM-59 1272l223 309h201l225 -309h-182l-150 207l-152 -207h-165z" />
    <glyph glyph-name="idieresis" unicode="&#xef;" horiz-adv-x="528" 
d="M172 0v1118h184v-1118h-184zM373 1280v225h194v-225h-194zM-37 1280v225h195v-225h-195z" />
    <glyph glyph-name="eth" unicode="&#xf0;" horiz-adv-x="1306" 
d="M621 1094q194 0 301 -121h4q-46 102 -123.5 192t-140.5 135l-248 -116l-82 86l235 110q-60 52 -151 103l151 98q4 -3 68.5 -48.5t97.5 -72.5l260 121l76 -80l-250 -115q377 -311 377 -829q0 -123 -35.5 -229t-102.5 -185t-171 -124.5t-234 -45.5t-233.5 45t-170.5 124.5
t-102.5 185.5t-35.5 229q0 107 34 203.5t97 171t161.5 118.5t217.5 44zM643 932q-162 0 -250 -102.5t-88 -272.5q0 -196 99 -308t249 -112t249 112t99 308q0 76 -21 142t-63 119t-112.5 83.5t-161.5 30.5z" />
    <glyph glyph-name="ntilde" unicode="&#xf1;" horiz-adv-x="1267" 
d="M172 0v1118h172v-178h4q115 205 365 205q107 0 183 -29.5t119 -86t62 -128.5t19 -166v-735h-183v758q0 102 -61.5 162.5t-165.5 60.5q-162 0 -247 -96.5t-85 -253.5v-631h-182zM893 1538h113q-15 -92 -70 -174q-61 -68 -170 -68q-43 0 -143 45q-7 2 -30 10.5t-33.5 12
t-28 9t-30.5 7.5t-24 2q-38 0 -71.5 -26.5t-30.5 -65.5h-113q30 112 81.5 175t145.5 63q65 0 160 -43q6 -2 24 -9.5t25.5 -10.5t22.5 -8.5t24.5 -8t22 -4.5t23.5 -2q39 0 64 28.5t38 67.5z" />
    <glyph glyph-name="ograve" unicode="&#xf2;" horiz-adv-x="1306" 
d="M111 557q0 168 60.5 299t185 210t296.5 79q130 0 234 -45.5t171 -125t102.5 -186t35.5 -231.5q0 -123 -35.5 -229t-102.5 -185t-171 -124.5t-234 -45.5t-233.5 45t-170.5 124.5t-102.5 185.5t-35.5 229zM305 557q0 -196 99 -308t249 -112t249 112t99 308q0 198 -99 311
t-249 113t-249 -113t-99 -311zM649 1272l-282 309h235l186 -309h-139z" />
    <glyph glyph-name="oacute" unicode="&#xf3;" horiz-adv-x="1306" 
d="M111 557q0 168 60.5 299t185 210t296.5 79q130 0 234 -45.5t171 -125t102.5 -186t35.5 -231.5q0 -123 -35.5 -229t-102.5 -185t-171 -124.5t-234 -45.5t-233.5 45t-170.5 124.5t-102.5 185.5t-35.5 229zM305 557q0 -196 99 -308t249 -112t249 112t99 308q0 198 -99 311
t-249 113t-249 -113t-99 -311zM520 1272l187 309h235l-285 -309h-137z" />
    <glyph glyph-name="ocircumflex" unicode="&#xf4;" horiz-adv-x="1306" 
d="M111 557q0 168 60.5 299t185 210t296.5 79q130 0 234 -45.5t171 -125t102.5 -186t35.5 -231.5q0 -123 -35.5 -229t-102.5 -185t-171 -124.5t-234 -45.5t-233.5 45t-170.5 124.5t-102.5 185.5t-35.5 229zM305 557q0 -196 99 -308t249 -112t249 112t99 308q0 198 -99 311
t-249 113t-249 -113t-99 -311zM330 1272l223 309h201l225 -309h-182l-150 207l-151 -207h-166z" />
    <glyph glyph-name="otilde" unicode="&#xf5;" horiz-adv-x="1306" 
d="M111 557q0 168 60.5 299t185 210t296.5 79q130 0 234 -45.5t171 -125t102.5 -186t35.5 -231.5q0 -123 -35.5 -229t-102.5 -185t-171 -124.5t-234 -45.5t-233.5 45t-170.5 124.5t-102.5 185.5t-35.5 229zM305 557q0 -196 99 -308t249 -112t249 112t99 308q0 198 -99 311
t-249 113t-249 -113t-99 -311zM913 1538h113q-15 -92 -70 -174q-61 -68 -170 -68q-43 0 -143 45q-8 3 -30 11t-33 11.5t-28 9t-30 7.5t-24 2q-39 0 -72.5 -26.5t-30.5 -65.5h-112q30 112 81.5 175t145.5 63q65 0 160 -43q4 -2 27.5 -11.5t31.5 -12.5t25.5 -9t30.5 -8t26 -2
q39 0 64 28.5t38 67.5z" />
    <glyph glyph-name="odieresis" unicode="&#xf6;" horiz-adv-x="1306" 
d="M111 557q0 168 60.5 299t185 210t296.5 79q130 0 234 -45.5t171 -125t102.5 -186t35.5 -231.5q0 -123 -35.5 -229t-102.5 -185t-171 -124.5t-234 -45.5t-233.5 45t-170.5 124.5t-102.5 185.5t-35.5 229zM305 557q0 -196 99 -308t249 -112t249 112t99 308q0 198 -99 311
t-249 113t-249 -113t-99 -311zM762 1280v225h194v-225h-194zM352 1280v225h195v-225h-195z" />
    <glyph glyph-name="divide" unicode="&#xf7;" horiz-adv-x="1392" 
d="M152 473v148h1089v-148h-1089zM557 993q0 56 41.5 96.5t97.5 40.5q55 0 96.5 -41.5t41.5 -95.5q0 -53 -41.5 -96t-94.5 -43q-57 0 -99 41.5t-42 97.5zM557 102q0 57 41.5 97.5t97.5 40.5t97 -41t41 -97q0 -53 -41.5 -96t-94.5 -43q-57 0 -99 41.5t-42 97.5z" />
    <glyph glyph-name="oslash" unicode="&#xf8;" horiz-adv-x="1306" 
d="M371 297l522 584q-92 100 -240 100q-150 0 -249 -113t-99 -311q0 -147 66 -260zM940 815l-522 -582q96 -96 235 -96q150 0 249 112t99 308q0 149 -61 258zM1196 1100l-125 -142q125 -155 125 -401q0 -123 -35.5 -229t-102.5 -185t-171 -124.5t-234 -45.5q-215 0 -356 125
l-127 -145l-59 51l129 150q-129 159 -129 403q0 168 60.5 299t185 210t296.5 79q221 0 363 -129l123 141z" />
    <glyph glyph-name="ugrave" unicode="&#xf9;" horiz-adv-x="1267" 
d="M1096 1118v-1118h-172v178h-4q-115 -205 -365 -205q-107 0 -183 29.5t-119 86t-62 128.5t-19 166v735h182v-758q0 -101 62 -162t166 -61q162 0 246.5 96t84.5 254v631h183zM629 1272l-283 309h236l186 -309h-139z" />
    <glyph glyph-name="uacute" unicode="&#xfa;" horiz-adv-x="1267" 
d="M1096 1118v-1118h-172v178h-4q-115 -205 -365 -205q-107 0 -183 29.5t-119 86t-62 128.5t-19 166v735h182v-758q0 -101 62 -162t166 -61q162 0 246.5 96t84.5 254v631h183zM500 1272l186 309h236l-285 -309h-137z" />
    <glyph glyph-name="ucircumflex" unicode="&#xfb;" horiz-adv-x="1267" 
d="M1096 1118v-1118h-172v178h-4q-115 -205 -365 -205q-107 0 -183 29.5t-119 86t-62 128.5t-19 166v735h182v-758q0 -101 62 -162t166 -61q162 0 246.5 96t84.5 254v631h183zM309 1272l223 309h201l225 -309h-182l-149 207l-152 -207h-166z" />
    <glyph glyph-name="udieresis" unicode="&#xfc;" horiz-adv-x="1267" 
d="M1096 1118v-1118h-172v178h-4q-115 -205 -365 -205q-107 0 -183 29.5t-119 86t-62 128.5t-19 166v735h182v-758q0 -101 62 -162t166 -61q162 0 246.5 96t84.5 254v631h183zM741 1280v225h195v-225h-195zM332 1280v225h194v-225h-194z" />
    <glyph glyph-name="yacute" unicode="&#xfd;" horiz-adv-x="1120" 
d="M1083 1118l-485 -1268q-64 -167 -134 -233t-190 -66q-68 0 -129 21v168q8 -2 26 -8t28.5 -8.5t26 -5.5t28.5 -3q54 0 89 25t63 76l75 190l-444 1112h209l325 -915h4l314 915h194zM426 1272l186 309h236l-285 -309h-137z" />
    <glyph glyph-name="thorn" unicode="&#xfe;" horiz-adv-x="1341" 
d="M1036 569q0 81 -21 153t-62 131t-109 93.5t-154 34.5q-71 0 -129.5 -24t-97.5 -64t-65.5 -94.5t-38 -114.5t-11.5 -125q0 -85 20 -159t61 -134t110.5 -94.5t160.5 -34.5q73 0 131.5 24t96 64.5t62.5 97t35.5 117.5t10.5 129zM354 1544v-577h6q42 88 138.5 133t218.5 45
q125 0 224.5 -47.5t162 -129.5t95 -187.5t32.5 -225.5t-32 -224t-94 -184.5t-160.5 -127t-223.5 -46.5q-101 0 -203 43t-158 134h-6v-578h-182v1972h182z" />
    <glyph glyph-name="ydieresis" unicode="&#xff;" horiz-adv-x="1120" 
d="M1083 1118l-485 -1268q-64 -167 -134 -233t-190 -66q-68 0 -129 21v168q8 -2 26 -8t28.5 -8.5t26 -5.5t28.5 -3q54 0 89 25t63 76l75 190l-444 1112h209l325 -915h4l314 915h194zM668 1280v225h194v-225h-194zM258 1280v225h195v-225h-195z" />
    <glyph glyph-name="dotlessi" unicode="&#x131;" horiz-adv-x="528" 
d="M172 0v1118h184v-1118h-184z" />
    <glyph glyph-name="Lslash" unicode="&#x141;" horiz-adv-x="1251" 
d="M205 0v518l-170 -121v166l170 121v860h207v-715l491 347v-164l-491 -346v-494h817v-172h-1024z" />
    <glyph glyph-name="lslash" unicode="&#x142;" horiz-adv-x="528" 
d="M172 0v694l-152 -119v154l152 121v694h184v-549l152 121v-153l-152 -121v-842h-184z" />
    <glyph glyph-name="OE" unicode="&#x152;" horiz-adv-x="2492" 
d="M891 137q163 0 275 86t112 217v652q0 100 -33 149q-48 71 -140.5 118.5t-209.5 47.5q-127 0 -228.5 -52t-164.5 -141.5t-96 -205t-33 -248.5q0 -175 57.5 -314t176.5 -224t284 -85zM1278 0v150h-4q-55 -87 -166.5 -137t-233.5 -50q-167 0 -302 62t-222.5 171t-134.5 255
t-47 317q0 234 84.5 417t250.5 289.5t390 106.5q115 0 226.5 -43.5t154.5 -120.5h4v127h1030v-174h-825v-489h758v-174h-758v-535h839v-172h-1044z" />
    <glyph glyph-name="oe" unicode="&#x153;" horiz-adv-x="2013" 
d="M1901 504h-811q-3 -100 31.5 -182t110 -133.5t181.5 -51.5q108 0 188.5 57.5t112.5 159.5h176q-112 -381 -477 -381q-311 0 -407 222q-50 -115 -152 -168.5t-236 -53.5q-128 0 -227 46.5t-159 128t-90.5 185.5t-30.5 226q0 125 31 230t92 185.5t159.5 125.5t224.5 45
q141 0 238.5 -44.5t149.5 -154.5q56 96 163.5 147.5t231.5 51.5q136 0 237.5 -50t160.5 -139t84.5 -203t17.5 -249zM1090 666h616q0 143 -81 229t-224 86t-228 -87.5t-83 -227.5zM930 563q0 418 -312 418q-85 0 -148 -38t-97.5 -103.5t-51 -141t-16.5 -161.5
q0 -59 10.5 -114.5t34.5 -108t59.5 -91.5t89 -62.5t119.5 -23.5q71 0 126.5 25t90 66t56.5 98t30.5 114.5t8.5 122.5z" />
    <glyph glyph-name="Scaron" unicode="&#x160;" horiz-adv-x="1462" 
d="M1286 1092h-194q-17 160 -116.5 237.5t-264.5 77.5q-69 0 -128 -13t-109.5 -42t-79.5 -82t-29 -125q0 -28 7.5 -52.5t19 -43.5t33.5 -37t41.5 -30.5t52.5 -25t57.5 -21t66 -18.5t68.5 -16t73.5 -16.5t73.5 -16.5q60 -13 106 -26t99.5 -33t93.5 -43.5t78.5 -57t62.5 -73.5
t39 -94t15 -117q0 -96 -36 -174.5t-95 -130.5t-138 -88t-162.5 -52t-170.5 -16q-106 0 -199.5 20t-174.5 63.5t-139.5 106.5t-92 154t-33.5 201h194q0 -94 37.5 -167t101.5 -116.5t143 -65.5t169 -22q59 0 111.5 7.5t105 27.5t90 50.5t61 81t23.5 114.5q0 41 -13.5 75
t-33 59t-55.5 47t-68 36t-83.5 29t-88.5 23.5t-97 21.5q-12 3 -19 4t-17 3.5t-19 4.5q-62 13 -105.5 24.5t-99.5 30t-94 39t-78 51.5t-64 67t-39 86t-15 109q0 113 47.5 202t127.5 142.5t178.5 81t207.5 27.5q120 0 220 -29t176.5 -87.5t121.5 -153.5t49 -219zM1057 1966
l-223 -309h-201l-225 309h182l147 -209l152 209h168z" />
    <glyph glyph-name="scaron" unicode="&#x161;" horiz-adv-x="1132" 
d="M92 352h182q6 -114 89.5 -164.5t211.5 -50.5q39 0 73 3.5t71.5 14.5t64.5 28.5t44.5 48t17.5 71.5q0 37 -19 66.5t-42 47t-74.5 35.5t-81.5 25t-98 22q-33 7 -50 11q-64 14 -109 28t-97 39.5t-84.5 56.5t-54 80t-21.5 111q0 65 24.5 119.5t66 91t96 61.5t112.5 36.5
t118 11.5q441 0 459 -352h-184q-6 68 -46 111.5t-93.5 60t-120.5 16.5q-45 0 -84 -6.5t-75.5 -21.5t-57.5 -44t-21 -69q0 -24 9.5 -45t23 -36t38.5 -28.5t47 -22.5t57.5 -18.5t60.5 -15t66 -14.5t65 -15q64 -14 109.5 -28t97 -39.5t83.5 -57.5t53 -81.5t21 -112.5
q0 -76 -28 -137.5t-73.5 -101t-108.5 -66t-128.5 -37.5t-136.5 -11q-98 0 -179.5 21t-147 64.5t-104 118.5t-42.5 175zM891 1581l-223 -309h-201l-225 309h182l147 -209l152 209h168z" />
    <glyph glyph-name="Ydieresis" unicode="&#x178;" horiz-adv-x="1392" 
d="M1393 1544l-590 -913v-631h-205v631l-598 913h244l463 -735l452 735h234zM805 1665v225h194v-225h-194zM395 1665v225h195v-225h-195z" />
    <glyph glyph-name="Zcaron" unicode="&#x17d;" horiz-adv-x="1421" 
d="M96 0v172l961 1198h-887v174h1128v-174l-956 -1198h983v-172h-1229zM1036 1966l-223 -309h-201l-225 309h182l148 -209l151 209h168z" />
    <glyph glyph-name="zcaron" unicode="&#x17e;" horiz-adv-x="1091" 
d="M74 0v141l676 815h-633v162h870v-125l-684 -831h715v-162h-944zM870 1581l-223 -309h-201l-225 309h182l148 -209l151 209h168z" />
    <glyph glyph-name="florin" unicode="&#x192;" 
d="M1108 1544l-29 -162h-129q-57 0 -89 -27.5t-44 -84.5l-67 -299h221l-31 -148h-215l-121 -671q-34 -199 -84 -308t-126 -154.5t-199 -45.5h-144l31 161q61 0 99 2.5t71.5 11.5t51.5 22t34.5 40t25.5 60t19 86l152 796h-201l28 148h197l57 295q25 127 112 202.5t220 75.5
h160z" />
    <glyph glyph-name="circumflex" unicode="&#x2c6;" horiz-adv-x="514" 
d="M-68 1272l224 309h200l226 -309h-183l-149 207l-152 -207h-166z" />
    <glyph glyph-name="caron" unicode="&#x2c7;" horiz-adv-x="514" 
d="M582 1581l-224 -309h-200l-226 309h183l147 -209l152 209h168z" />
    <glyph glyph-name="breve" unicode="&#x2d8;" horiz-adv-x="514" 
d="M-82 1581h109q55 -180 245 -180q87 0 132 43.5t81 136.5h111q-24 -140 -112.5 -219.5t-229.5 -79.5q-291 0 -336 299z" />
    <glyph glyph-name="dotaccent" unicode="&#x2d9;" horiz-adv-x="514" 
d="M354 1505v-225h-194v225h194z" />
    <glyph glyph-name="ring" unicode="&#x2da;" horiz-adv-x="514" 
d="M109 1432q0 -62 43 -105t104 -43q63 0 106.5 43t43.5 105t-43.5 104.5t-106.5 42.5q-62 0 -104.5 -42.5t-42.5 -104.5zM12 1432q0 100 72 171.5t172 71.5q102 0 174 -71.5t72 -171.5q0 -101 -71.5 -172.5t-174.5 -71.5q-100 0 -172 71.5t-72 172.5z" />
    <glyph glyph-name="ogonek" unicode="&#x2db;" horiz-adv-x="514" 
d="M430 6h86q-106 -87 -146 -148.5t-40 -113.5q0 -37 21 -63.5t61 -26.5q48 0 78 16t57 49l67 -38q-78 -136 -233 -136q-22 0 -41 2t-50.5 12t-53 27.5t-38 53t-16.5 84.5q0 19 8.5 43.5t31.5 62t77 84t131 92.5z" />
    <glyph glyph-name="tilde" unicode="&#x2dc;" horiz-adv-x="514" 
d="M516 1538h113q-15 -92 -70 -174q-61 -68 -170 -68q-43 0 -143 45q-7 2 -30 10.5t-33.5 12t-28 9t-30.5 7.5t-24 2q-38 0 -71.5 -26.5t-30.5 -65.5h-113q30 112 82 175t146 63q64 0 159 -43q6 -2 24 -9.5t25.5 -10.5t22.5 -8.5t24.5 -8t22 -4.5t23.5 -2q39 0 64 28.5
t38 67.5z" />
    <glyph glyph-name="hungarumlaut" unicode="&#x2dd;" horiz-adv-x="514" 
d="M-86 1272l176 309h227l-260 -309h-143zM252 1272l176 309h225l-258 -309h-143z" />
    <glyph glyph-name="endash" unicode="&#x2013;" horiz-adv-x="1024" 
d="M0 514v174h1024v-174h-1024z" />
    <glyph glyph-name="emdash" unicode="&#x2014;" horiz-adv-x="1392" 
d="M152 473v148h1089v-148h-1089z" />
    <glyph glyph-name="quoteleft" unicode="&#x2018;" horiz-adv-x="569" 
d="M403 1227v-240h-237v240q0 66 13.5 121.5t41 100t74 70t106.5 25.5v-108q-46 0 -75.5 -33t-39.5 -77t-10 -99h127z" />
    <glyph glyph-name="quoteright" unicode="&#x2019;" horiz-adv-x="569" 
d="M166 1307v237h237v-237q0 -139 -58.5 -229.5t-176.5 -90.5v109q45 0 74.5 33t40 78t10.5 100h-127z" />
    <glyph glyph-name="quotesinglbase" unicode="&#x201a;" horiz-adv-x="569" 
d="M166 0v238h237v-238q0 -66 -13.5 -121.5t-41 -100t-74 -70t-106.5 -25.5v108q66 0 95.5 61t29.5 148h-127z" />
    <glyph glyph-name="quotedblleft" unicode="&#x201c;" horiz-adv-x="913" 
d="M774 1227v-240h-237v240q0 66 13.5 121.5t41 100t74 70t106.5 25.5v-108q-45 0 -74.5 -33t-40 -77.5t-10.5 -98.5h127zM377 1227v-240h-238v240q0 89 23.5 158.5t78 114t134.5 44.5v-108q-46 0 -75.5 -33t-39.5 -77t-10 -99h127z" />
    <glyph glyph-name="quotedblright" unicode="&#x201d;" horiz-adv-x="913" 
d="M537 1307v237h237v-237q0 -139 -58.5 -229.5t-176.5 -90.5v109q45 0 74.5 33t40 78t10.5 100h-127zM139 1307v237h238v-237q0 -139 -59 -229.5t-177 -90.5v109q45 0 74.5 33t40 78t10.5 100h-127z" />
    <glyph glyph-name="quotedblbase" unicode="&#x201e;" horiz-adv-x="913" 
d="M139 0v238h238v-238q0 -89 -23.5 -158.5t-78 -114t-134.5 -44.5v108q66 0 95.5 61t29.5 148h-127zM537 0v238h237v-238q0 -66 -13.5 -121.5t-41 -100t-74 -70t-106.5 -25.5v108q66 0 95.5 61t29.5 148h-127z" />
    <glyph glyph-name="dagger" unicode="&#x2020;" horiz-adv-x="1292" 
d="M555 -336v1292h-420v162h420v426h174v-426h428v-162h-428v-1292h-174z" />
    <glyph glyph-name="daggerdbl" unicode="&#x2021;" horiz-adv-x="1292" 
d="M555 -336v426h-420v164h420v702h-420v162h420v426h174v-426h428v-162h-428v-702h428v-164h-428v-426h-174z" />
    <glyph glyph-name="bullet" unicode="&#x2022;" horiz-adv-x="1159" 
d="M195 772q0 160 112.5 272.5t272.5 112.5t272.5 -112.5t112.5 -272.5t-112.5 -272.5t-272.5 -112.5t-272.5 112.5t-112.5 272.5z" />
    <glyph glyph-name="ellipsis" unicode="&#x2026;" horiz-adv-x="2048" 
d="M223 0v238h238v-238h-238zM905 0v238h238v-238h-238zM1587 0v238h238v-238h-238z" />
    <glyph glyph-name="perthousand" unicode="&#x2030;" horiz-adv-x="2519" 
d="M174 1157q0 81 17.5 147.5t54.5 119t100 81.5t148 29q163 0 239 -99t76 -268q0 -168 -86 -274q-73 -96 -234 -96t-238 97t-77 263zM336 1163q0 -248 156 -248q37 0 65.5 15.5t45 40t27 58.5t14 65.5t3.5 66.5q0 41 -6 79.5t-20.5 80t-45.5 67t-75 25.5q-47 0 -80.5 -23
t-51 -61.5t-25 -79t-7.5 -86.5zM963 336q0 169 78 272t243 103q163 0 239 -98.5t76 -266.5q0 -164 -86 -274q-78 -99 -233 -99q-161 0 -239 98.5t-78 264.5zM1126 342q0 -250 156 -250q45 0 77.5 23t48.5 62t23 79t7 84q0 40 -6.5 79t-21 80.5t-46 67t-74.5 25.5
q-47 0 -81 -22.5t-51 -61.5t-24.5 -79.5t-7.5 -86.5zM1710 336q0 169 77.5 272t242.5 103q163 0 239 -98.5t76 -266.5q0 -164 -86 -274q-78 -99 -234 -99q-161 0 -238 98t-77 265zM1872 342q0 -250 156 -250q45 0 77.5 23t48 62t22.5 78.5t7 84.5q0 40 -6 79t-21 80.5
t-46 67t-74 25.5q-47 0 -80.5 -23t-51 -61.5t-25 -79t-7.5 -86.5zM213 -47l1163 1608h185l-1162 -1608h-186z" />
    <glyph glyph-name="guilsinglleft" unicode="&#x2039;" horiz-adv-x="528" 
d="M428 246l-328 260v190l328 260v-186l-215 -168l215 -170v-186z" />
    <glyph glyph-name="guilsinglright" unicode="&#x203a;" horiz-adv-x="528" 
d="M100 956l328 -260v-190l-328 -260v186l215 170l-215 168v186z" />
    <glyph glyph-name="fraction" unicode="&#x2044;" horiz-adv-x="387" 
d="M-344 -61l940 1628h139l-942 -1628h-137z" />
    <glyph glyph-name="trademark" unicode="&#x2122;" horiz-adv-x="1638" 
d="M283 772v686h-258v86h618v-86h-258v-686h-102zM768 772v772h141l244 -649l244 649h141v-772h-98v643h-2l-240 -643h-88l-242 643h-2v-643h-98z" />
    <glyph glyph-name="minus" unicode="&#x2212;" horiz-adv-x="1392" 
d="M152 473v148h1089v-148h-1089z" />
    <glyph glyph-name="fi" unicode="&#xfb01;" horiz-adv-x="1177" 
d="M229 0v956h-188v162h188v166q0 136 78.5 206.5t229.5 70.5q61 0 120 -17v-160q-50 15 -104 15q-70 0 -105.5 -28t-35.5 -97v-156h217v-162h-217v-956h-183zM1006 1319h-185v225h185v-225zM1006 0h-185v1118h185v-1118z" />
    <glyph glyph-name="fl" unicode="&#xfb02;" horiz-adv-x="1177" 
d="M229 0v956h-188v162h188v166q0 136 78.5 206.5t229.5 70.5q61 0 120 -17v-160q-50 15 -104 15q-70 0 -105.5 -28t-35.5 -97v-156h217v-162h-217v-956h-183zM821 0v1544h185v-1544h-185z" />
  </font>
</defs>
</svg>
